%TF.GenerationSoftware,KiCad,Pcbnew,9.0.9-9.0.9~ubuntu22.04.1*%
%TF.CreationDate,2026-06-27T11:12:59-04:00*%
%TF.ProjectId,cc-afe,63632d61-6665-42e6-9b69-6361645f7063,rev?*%
%TF.SameCoordinates,Original*%
%TF.FileFunction,Soldermask,Bot*%
%TF.FilePolarity,Negative*%
%FSLAX46Y46*%
G04 Gerber Fmt 4.6, Leading zero omitted, Abs format (unit mm)*
G04 Created by KiCad (PCBNEW 9.0.9-9.0.9~ubuntu22.04.1) date 2026-06-27 11:12:59*
%MOMM*%
%LPD*%
G01*
G04 APERTURE LIST*
G04 Aperture macros list*
%AMRoundRect*
0 Rectangle with rounded corners*
0 $1 Rounding radius*
0 $2 $3 $4 $5 $6 $7 $8 $9 X,Y pos of 4 corners*
0 Add a 4 corners polygon primitive as box body*
4,1,4,$2,$3,$4,$5,$6,$7,$8,$9,$2,$3,0*
0 Add four circle primitives for the rounded corners*
1,1,$1+$1,$2,$3*
1,1,$1+$1,$4,$5*
1,1,$1+$1,$6,$7*
1,1,$1+$1,$8,$9*
0 Add four rect primitives between the rounded corners*
20,1,$1+$1,$2,$3,$4,$5,0*
20,1,$1+$1,$4,$5,$6,$7,0*
20,1,$1+$1,$6,$7,$8,$9,0*
20,1,$1+$1,$8,$9,$2,$3,0*%
G04 Aperture macros list end*
%ADD10C,1.226200*%
%ADD11C,1.576200*%
%ADD12C,0.010000*%
%ADD13C,0.635000*%
%ADD14C,1.600000*%
%ADD15C,3.251200*%
%ADD16C,1.728000*%
%ADD17C,2.566200*%
%ADD18C,7.500000*%
%ADD19RoundRect,0.102000X-0.500000X-0.500000X0.500000X-0.500000X0.500000X0.500000X-0.500000X0.500000X0*%
%ADD20C,1.204000*%
%ADD21C,1.850000*%
%ADD22C,0.860000*%
%ADD23C,1.550000*%
%ADD24C,3.000000*%
%ADD25C,2.000000*%
%ADD26RoundRect,0.250000X-0.475000X0.250000X-0.475000X-0.250000X0.475000X-0.250000X0.475000X0.250000X0*%
%ADD27RoundRect,0.225000X0.250000X-0.225000X0.250000X0.225000X-0.250000X0.225000X-0.250000X-0.225000X0*%
%ADD28RoundRect,0.225000X0.225000X0.250000X-0.225000X0.250000X-0.225000X-0.250000X0.225000X-0.250000X0*%
%ADD29RoundRect,0.218750X0.256250X-0.218750X0.256250X0.218750X-0.256250X0.218750X-0.256250X-0.218750X0*%
%ADD30RoundRect,0.225000X-0.250000X0.225000X-0.250000X-0.225000X0.250000X-0.225000X0.250000X0.225000X0*%
%ADD31RoundRect,0.225000X-0.225000X-0.250000X0.225000X-0.250000X0.225000X0.250000X-0.225000X0.250000X0*%
%ADD32R,0.812800X0.889000*%
%ADD33RoundRect,0.250000X0.475000X-0.250000X0.475000X0.250000X-0.475000X0.250000X-0.475000X-0.250000X0*%
G04 APERTURE END LIST*
D10*
%TO.C,J7*%
X289813100Y-314800000D02*
G75*
G02*
X288586900Y-314800000I-613100J0D01*
G01*
X288586900Y-314800000D02*
G75*
G02*
X289813100Y-314800000I613100J0D01*
G01*
D11*
X302788100Y-314800000D02*
G75*
G02*
X301211900Y-314800000I-788100J0D01*
G01*
X301211900Y-314800000D02*
G75*
G02*
X302788100Y-314800000I788100J0D01*
G01*
D12*
X295926200Y-316026200D02*
X293473800Y-316026200D01*
X293473800Y-313573800D01*
X295926200Y-313573800D01*
X295926200Y-316026200D01*
G36*
X295926200Y-316026200D02*
G01*
X293473800Y-316026200D01*
X293473800Y-313573800D01*
X295926200Y-313573800D01*
X295926200Y-316026200D01*
G37*
%TD*%
D13*
%TO.C,U11*%
X152205600Y-193246000D03*
X152205600Y-194546000D03*
X152205600Y-195646000D03*
X152205600Y-196846000D03*
X153705600Y-193296000D03*
X153705600Y-194546000D03*
X153705600Y-195646000D03*
X153705600Y-196846000D03*
%TD*%
D14*
%TO.C,J10*%
X158700000Y-175000000D03*
X158700000Y-180080000D03*
X156160000Y-180080000D03*
X161240000Y-180080000D03*
X156160000Y-175000000D03*
X161240000Y-175000000D03*
%TD*%
%TO.C,J18*%
X248700000Y-175000000D03*
X248700000Y-180080000D03*
X246160000Y-180080000D03*
X251240000Y-180080000D03*
X246160000Y-175000000D03*
X251240000Y-175000000D03*
%TD*%
%TO.C,J16*%
X228700000Y-175000000D03*
X228700000Y-180080000D03*
X226160000Y-180080000D03*
X231240000Y-180080000D03*
X226160000Y-175000000D03*
X231240000Y-175000000D03*
%TD*%
%TO.C,J13*%
X193700000Y-175000000D03*
X193700000Y-180080000D03*
X191160000Y-180080000D03*
X196240000Y-180080000D03*
X191160000Y-175000000D03*
X196240000Y-175000000D03*
%TD*%
%TO.C,J9*%
X148700000Y-175000000D03*
X148700000Y-180080000D03*
X146160000Y-180080000D03*
X151240000Y-180080000D03*
X146160000Y-175000000D03*
X151240000Y-175000000D03*
%TD*%
%TO.C,J15*%
X218700000Y-175000000D03*
X218700000Y-180080000D03*
X216160000Y-180080000D03*
X221240000Y-180080000D03*
X216160000Y-175000000D03*
X221240000Y-175000000D03*
%TD*%
%TO.C,J12*%
X183700000Y-175000000D03*
X183700000Y-180080000D03*
X181160000Y-180080000D03*
X186240000Y-180080000D03*
X181160000Y-175000000D03*
X186240000Y-175000000D03*
%TD*%
%TO.C,J14*%
X203700000Y-175000000D03*
X203700000Y-180080000D03*
X201160000Y-180080000D03*
X206240000Y-180080000D03*
X201160000Y-175000000D03*
X206240000Y-175000000D03*
%TD*%
%TO.C,J11*%
X173700000Y-175000000D03*
X173700000Y-180080000D03*
X171160000Y-180080000D03*
X176240000Y-180080000D03*
X171160000Y-175000000D03*
X176240000Y-175000000D03*
%TD*%
%TO.C,J17*%
X238700000Y-175000000D03*
X238700000Y-180080000D03*
X236160000Y-180080000D03*
X241240000Y-180080000D03*
X236160000Y-175000000D03*
X241240000Y-175000000D03*
%TD*%
D15*
%TO.C,J8*%
X289074200Y-171932000D03*
X263674200Y-171932000D03*
D16*
X287804200Y-178282000D03*
X273834200Y-178282000D03*
X286534200Y-180822000D03*
X272564200Y-180822000D03*
X285264200Y-178282000D03*
X271294200Y-178282000D03*
X283994200Y-180822000D03*
X270024200Y-180822000D03*
X282724200Y-178282000D03*
X268754200Y-178282000D03*
X281454200Y-180822000D03*
X267484200Y-180822000D03*
X280184200Y-178282000D03*
X266214200Y-178282000D03*
X278914200Y-180822000D03*
X264944200Y-180822000D03*
X276806000Y-168122000D03*
X262607400Y-168122000D03*
X276806000Y-166344000D03*
X262607400Y-166344000D03*
X290141000Y-168122000D03*
X275942400Y-171678000D03*
X290141000Y-166344000D03*
X275942400Y-169900000D03*
D17*
X260880200Y-174980000D03*
X291868200Y-174980000D03*
X277009200Y-186410000D03*
%TD*%
D18*
%TO.C,MT2*%
X111960000Y-329920000D03*
%TD*%
%TO.C,MT4*%
X299920000Y-329920000D03*
%TD*%
%TO.C,MT6*%
X68780000Y-180060000D03*
%TD*%
D19*
%TO.C,J1*%
X141424000Y-321284000D03*
D20*
X138924000Y-321284000D03*
X136424000Y-321284000D03*
X133924000Y-321284000D03*
X131424000Y-321284000D03*
X128924000Y-321284000D03*
X126424000Y-321284000D03*
X123924000Y-321284000D03*
X121424000Y-321284000D03*
X118924000Y-321284000D03*
X141424000Y-319784000D03*
X138924000Y-319784000D03*
X136424000Y-319784000D03*
X133924000Y-319784000D03*
X131424000Y-319784000D03*
X128924000Y-319784000D03*
X126424000Y-319784000D03*
X123924000Y-319784000D03*
X121424000Y-319784000D03*
X118924000Y-319784000D03*
X141424000Y-318284000D03*
X138924000Y-318284000D03*
X136424000Y-318284000D03*
X133924000Y-318284000D03*
X131424000Y-318284000D03*
X128924000Y-318284000D03*
X126424000Y-318284000D03*
X123924000Y-318284000D03*
X121424000Y-318284000D03*
X118924000Y-318284000D03*
X141424000Y-316784000D03*
X138924000Y-316784000D03*
X136424000Y-316784000D03*
X133924000Y-316784000D03*
X131424000Y-316784000D03*
X128924000Y-316784000D03*
X126424000Y-316784000D03*
X123924000Y-316784000D03*
X121424000Y-316784000D03*
X118924000Y-316784000D03*
X141424000Y-315284000D03*
X138924000Y-315284000D03*
X136424000Y-315284000D03*
X133924000Y-315284000D03*
X131424000Y-315284000D03*
X128924000Y-315284000D03*
X126424000Y-315284000D03*
X123924000Y-315284000D03*
X121424000Y-315284000D03*
X118924000Y-315284000D03*
X141424000Y-313784000D03*
X138924000Y-313784000D03*
X136424000Y-313784000D03*
X133924000Y-313784000D03*
X131424000Y-313784000D03*
X128924000Y-313784000D03*
X126424000Y-313784000D03*
X123924000Y-313784000D03*
X121424000Y-313784000D03*
X118924000Y-313784000D03*
%TD*%
D21*
%TO.C,J6*%
X133568000Y-212100000D03*
X122568000Y-219600000D03*
X119318000Y-212100000D03*
X108318000Y-219600000D03*
X105068000Y-212100000D03*
X94068000Y-219600000D03*
X90818000Y-212100000D03*
X79818000Y-219600000D03*
D22*
X124668000Y-211370000D03*
X125468000Y-212750000D03*
X126268000Y-211370000D03*
X127068000Y-212750000D03*
X127868000Y-211370000D03*
X128668000Y-212750000D03*
X129468000Y-211370000D03*
X130268000Y-212750000D03*
X131068000Y-211370000D03*
X131868000Y-212750000D03*
X131468000Y-209820000D03*
X130668000Y-208430000D03*
X129868000Y-209820000D03*
X129068000Y-208430000D03*
X128268000Y-209820000D03*
X127468000Y-208430000D03*
X126668000Y-209820000D03*
X125868000Y-208430000D03*
X125068000Y-209820000D03*
X124268000Y-208430000D03*
X131468000Y-215690000D03*
X130668000Y-214300000D03*
X129868000Y-215690000D03*
X129068000Y-214300000D03*
X128268000Y-215690000D03*
X127468000Y-214300000D03*
X126668000Y-215690000D03*
X125868000Y-214300000D03*
X125068000Y-215690000D03*
X124268000Y-214300000D03*
X124668000Y-217240000D03*
X125468000Y-218620000D03*
X126268000Y-217240000D03*
X127068000Y-218620000D03*
X127868000Y-217240000D03*
X128668000Y-218620000D03*
X129468000Y-217240000D03*
X130268000Y-218620000D03*
X131068000Y-217240000D03*
X131868000Y-218620000D03*
X110418000Y-211370000D03*
X111218000Y-212750000D03*
X112018000Y-211370000D03*
X112818000Y-212750000D03*
X113618000Y-211370000D03*
X114418000Y-212750000D03*
X115218000Y-211370000D03*
X116018000Y-212750000D03*
X116818000Y-211370000D03*
X117618000Y-212750000D03*
X117218000Y-209820000D03*
X116418000Y-208430000D03*
X115618000Y-209820000D03*
X114818000Y-208430000D03*
X114018000Y-209820000D03*
X113218000Y-208430000D03*
X112418000Y-209820000D03*
X111618000Y-208430000D03*
X110818000Y-209820000D03*
X110018000Y-208430000D03*
X117218000Y-215690000D03*
X116418000Y-214300000D03*
X115618000Y-215690000D03*
X114818000Y-214300000D03*
X114018000Y-215690000D03*
X113218000Y-214300000D03*
X112418000Y-215690000D03*
X111618000Y-214300000D03*
X110818000Y-215690000D03*
X110018000Y-214300000D03*
X110418000Y-217240000D03*
X111218000Y-218620000D03*
X112018000Y-217240000D03*
X112818000Y-218620000D03*
X113618000Y-217240000D03*
X114418000Y-218620000D03*
X115218000Y-217240000D03*
X116018000Y-218620000D03*
X116818000Y-217240000D03*
X117618000Y-218620000D03*
D23*
X135193000Y-202000000D03*
X135193000Y-194000000D03*
X135193000Y-186000000D03*
X135193000Y-178000000D03*
X135193000Y-170000000D03*
X132068000Y-221625000D03*
X128068000Y-221625000D03*
X124068000Y-221625000D03*
X120943000Y-202000000D03*
X120943000Y-194000000D03*
X120943000Y-186000000D03*
X120943000Y-178000000D03*
X120943000Y-170000000D03*
X117818000Y-221625000D03*
X113818000Y-221625000D03*
X109818000Y-221625000D03*
X106693000Y-202000000D03*
X106693000Y-194000000D03*
X106693000Y-186000000D03*
X106693000Y-178000000D03*
X106693000Y-170000000D03*
X103568000Y-221625000D03*
X99568000Y-221625000D03*
X95568000Y-221625000D03*
X92443000Y-202000000D03*
X92443000Y-194000000D03*
X92443000Y-186000000D03*
X92443000Y-178000000D03*
X92443000Y-170000000D03*
X89318000Y-221625000D03*
X85318000Y-221625000D03*
X81318000Y-221625000D03*
X78193000Y-202000000D03*
X78193000Y-194000000D03*
X78193000Y-186000000D03*
X78193000Y-178000000D03*
X78193000Y-170000000D03*
D22*
X96168000Y-211370000D03*
X96968000Y-212750000D03*
X97768000Y-211370000D03*
X98568000Y-212750000D03*
X99368000Y-211370000D03*
X100168000Y-212750000D03*
X100968000Y-211370000D03*
X101768000Y-212750000D03*
X102568000Y-211370000D03*
X103368000Y-212750000D03*
X102968000Y-209820000D03*
X102168000Y-208430000D03*
X101368000Y-209820000D03*
X100568000Y-208430000D03*
X99768000Y-209820000D03*
X98968000Y-208430000D03*
X98168000Y-209820000D03*
X97368000Y-208430000D03*
X96568000Y-209820000D03*
X95768000Y-208430000D03*
X102968000Y-215690000D03*
X102168000Y-214300000D03*
X101368000Y-215690000D03*
X100568000Y-214300000D03*
X99768000Y-215690000D03*
X98968000Y-214300000D03*
X98168000Y-215690000D03*
X97368000Y-214300000D03*
X96568000Y-215690000D03*
X95768000Y-214300000D03*
X96168000Y-217240000D03*
X96968000Y-218620000D03*
X97768000Y-217240000D03*
X98568000Y-218620000D03*
X99368000Y-217240000D03*
X100168000Y-218620000D03*
X100968000Y-217240000D03*
X101768000Y-218620000D03*
X102568000Y-217240000D03*
X103368000Y-218620000D03*
X81918000Y-211370000D03*
X82718000Y-212750000D03*
X83518000Y-211370000D03*
X84318000Y-212750000D03*
X85118000Y-211370000D03*
X85918000Y-212750000D03*
X86718000Y-211370000D03*
X87518000Y-212750000D03*
X88318000Y-211370000D03*
X89118000Y-212750000D03*
X88718000Y-209820000D03*
X87918000Y-208430000D03*
X87118000Y-209820000D03*
X86318000Y-208430000D03*
X85518000Y-209820000D03*
X84718000Y-208430000D03*
X83918000Y-209820000D03*
X83118000Y-208430000D03*
X82318000Y-209820000D03*
X81518000Y-208430000D03*
X88718000Y-215690000D03*
X87918000Y-214300000D03*
X87118000Y-215690000D03*
X86318000Y-214300000D03*
X85518000Y-215690000D03*
X84718000Y-214300000D03*
X83918000Y-215690000D03*
X83118000Y-214300000D03*
X82318000Y-215690000D03*
X81518000Y-214300000D03*
X81918000Y-217240000D03*
X82718000Y-218620000D03*
X83518000Y-217240000D03*
X84318000Y-218620000D03*
X85118000Y-217240000D03*
X85918000Y-218620000D03*
X86718000Y-217240000D03*
X87518000Y-218620000D03*
X88318000Y-217240000D03*
X89118000Y-218620000D03*
%TD*%
D19*
%TO.C,J4*%
X217624000Y-321284000D03*
D20*
X215124000Y-321284000D03*
X212624000Y-321284000D03*
X210124000Y-321284000D03*
X207624000Y-321284000D03*
X205124000Y-321284000D03*
X202624000Y-321284000D03*
X200124000Y-321284000D03*
X197624000Y-321284000D03*
X195124000Y-321284000D03*
X217624000Y-319784000D03*
X215124000Y-319784000D03*
X212624000Y-319784000D03*
X210124000Y-319784000D03*
X207624000Y-319784000D03*
X205124000Y-319784000D03*
X202624000Y-319784000D03*
X200124000Y-319784000D03*
X197624000Y-319784000D03*
X195124000Y-319784000D03*
X217624000Y-318284000D03*
X215124000Y-318284000D03*
X212624000Y-318284000D03*
X210124000Y-318284000D03*
X207624000Y-318284000D03*
X205124000Y-318284000D03*
X202624000Y-318284000D03*
X200124000Y-318284000D03*
X197624000Y-318284000D03*
X195124000Y-318284000D03*
X217624000Y-316784000D03*
X215124000Y-316784000D03*
X212624000Y-316784000D03*
X210124000Y-316784000D03*
X207624000Y-316784000D03*
X205124000Y-316784000D03*
X202624000Y-316784000D03*
X200124000Y-316784000D03*
X197624000Y-316784000D03*
X195124000Y-316784000D03*
X217624000Y-315284000D03*
X215124000Y-315284000D03*
X212624000Y-315284000D03*
X210124000Y-315284000D03*
X207624000Y-315284000D03*
X205124000Y-315284000D03*
X202624000Y-315284000D03*
X200124000Y-315284000D03*
X197624000Y-315284000D03*
X195124000Y-315284000D03*
X217624000Y-313784000D03*
X215124000Y-313784000D03*
X212624000Y-313784000D03*
X210124000Y-313784000D03*
X207624000Y-313784000D03*
X205124000Y-313784000D03*
X202624000Y-313784000D03*
X200124000Y-313784000D03*
X197624000Y-313784000D03*
X195124000Y-313784000D03*
%TD*%
D24*
%TO.C,J7*%
X302000000Y-314800000D03*
%TD*%
D19*
%TO.C,J3*%
X192224000Y-321284000D03*
D20*
X189724000Y-321284000D03*
X187224000Y-321284000D03*
X184724000Y-321284000D03*
X182224000Y-321284000D03*
X179724000Y-321284000D03*
X177224000Y-321284000D03*
X174724000Y-321284000D03*
X172224000Y-321284000D03*
X169724000Y-321284000D03*
X192224000Y-319784000D03*
X189724000Y-319784000D03*
X187224000Y-319784000D03*
X184724000Y-319784000D03*
X182224000Y-319784000D03*
X179724000Y-319784000D03*
X177224000Y-319784000D03*
X174724000Y-319784000D03*
X172224000Y-319784000D03*
X169724000Y-319784000D03*
X192224000Y-318284000D03*
X189724000Y-318284000D03*
X187224000Y-318284000D03*
X184724000Y-318284000D03*
X182224000Y-318284000D03*
X179724000Y-318284000D03*
X177224000Y-318284000D03*
X174724000Y-318284000D03*
X172224000Y-318284000D03*
X169724000Y-318284000D03*
X192224000Y-316784000D03*
X189724000Y-316784000D03*
X187224000Y-316784000D03*
X184724000Y-316784000D03*
X182224000Y-316784000D03*
X179724000Y-316784000D03*
X177224000Y-316784000D03*
X174724000Y-316784000D03*
X172224000Y-316784000D03*
X169724000Y-316784000D03*
X192224000Y-315284000D03*
X189724000Y-315284000D03*
X187224000Y-315284000D03*
X184724000Y-315284000D03*
X182224000Y-315284000D03*
X179724000Y-315284000D03*
X177224000Y-315284000D03*
X174724000Y-315284000D03*
X172224000Y-315284000D03*
X169724000Y-315284000D03*
X192224000Y-313784000D03*
X189724000Y-313784000D03*
X187224000Y-313784000D03*
X184724000Y-313784000D03*
X182224000Y-313784000D03*
X179724000Y-313784000D03*
X177224000Y-313784000D03*
X174724000Y-313784000D03*
X172224000Y-313784000D03*
X169724000Y-313784000D03*
%TD*%
D19*
%TO.C,J2*%
X166824000Y-321284000D03*
D20*
X164324000Y-321284000D03*
X161824000Y-321284000D03*
X159324000Y-321284000D03*
X156824000Y-321284000D03*
X154324000Y-321284000D03*
X151824000Y-321284000D03*
X149324000Y-321284000D03*
X146824000Y-321284000D03*
X144324000Y-321284000D03*
X166824000Y-319784000D03*
X164324000Y-319784000D03*
X161824000Y-319784000D03*
X159324000Y-319784000D03*
X156824000Y-319784000D03*
X154324000Y-319784000D03*
X151824000Y-319784000D03*
X149324000Y-319784000D03*
X146824000Y-319784000D03*
X144324000Y-319784000D03*
X166824000Y-318284000D03*
X164324000Y-318284000D03*
X161824000Y-318284000D03*
X159324000Y-318284000D03*
X156824000Y-318284000D03*
X154324000Y-318284000D03*
X151824000Y-318284000D03*
X149324000Y-318284000D03*
X146824000Y-318284000D03*
X144324000Y-318284000D03*
X166824000Y-316784000D03*
X164324000Y-316784000D03*
X161824000Y-316784000D03*
X159324000Y-316784000D03*
X156824000Y-316784000D03*
X154324000Y-316784000D03*
X151824000Y-316784000D03*
X149324000Y-316784000D03*
X146824000Y-316784000D03*
X144324000Y-316784000D03*
X166824000Y-315284000D03*
X164324000Y-315284000D03*
X161824000Y-315284000D03*
X159324000Y-315284000D03*
X156824000Y-315284000D03*
X154324000Y-315284000D03*
X151824000Y-315284000D03*
X149324000Y-315284000D03*
X146824000Y-315284000D03*
X144324000Y-315284000D03*
X166824000Y-313784000D03*
X164324000Y-313784000D03*
X161824000Y-313784000D03*
X159324000Y-313784000D03*
X156824000Y-313784000D03*
X154324000Y-313784000D03*
X151824000Y-313784000D03*
X149324000Y-313784000D03*
X146824000Y-313784000D03*
X144324000Y-313784000D03*
%TD*%
D18*
%TO.C,MT3*%
X250644000Y-329920000D03*
%TD*%
D25*
%TO.C,TP6*%
X265200000Y-291400000D03*
%TD*%
D19*
%TO.C,J5*%
X243024000Y-321284000D03*
D20*
X240524000Y-321284000D03*
X238024000Y-321284000D03*
X235524000Y-321284000D03*
X233024000Y-321284000D03*
X230524000Y-321284000D03*
X228024000Y-321284000D03*
X225524000Y-321284000D03*
X223024000Y-321284000D03*
X220524000Y-321284000D03*
X243024000Y-319784000D03*
X240524000Y-319784000D03*
X238024000Y-319784000D03*
X235524000Y-319784000D03*
X233024000Y-319784000D03*
X230524000Y-319784000D03*
X228024000Y-319784000D03*
X225524000Y-319784000D03*
X223024000Y-319784000D03*
X220524000Y-319784000D03*
X243024000Y-318284000D03*
X240524000Y-318284000D03*
X238024000Y-318284000D03*
X235524000Y-318284000D03*
X233024000Y-318284000D03*
X230524000Y-318284000D03*
X228024000Y-318284000D03*
X225524000Y-318284000D03*
X223024000Y-318284000D03*
X220524000Y-318284000D03*
X243024000Y-316784000D03*
X240524000Y-316784000D03*
X238024000Y-316784000D03*
X235524000Y-316784000D03*
X233024000Y-316784000D03*
X230524000Y-316784000D03*
X228024000Y-316784000D03*
X225524000Y-316784000D03*
X223024000Y-316784000D03*
X220524000Y-316784000D03*
X243024000Y-315284000D03*
X240524000Y-315284000D03*
X238024000Y-315284000D03*
X235524000Y-315284000D03*
X233024000Y-315284000D03*
X230524000Y-315284000D03*
X228024000Y-315284000D03*
X225524000Y-315284000D03*
X223024000Y-315284000D03*
X220524000Y-315284000D03*
X243024000Y-313784000D03*
X240524000Y-313784000D03*
X238024000Y-313784000D03*
X235524000Y-313784000D03*
X233024000Y-313784000D03*
X230524000Y-313784000D03*
X228024000Y-313784000D03*
X225524000Y-313784000D03*
X223024000Y-313784000D03*
X220524000Y-313784000D03*
%TD*%
D18*
%TO.C,MT5*%
X299920000Y-180060000D03*
%TD*%
D25*
%TO.C,TP5*%
X277100000Y-280000000D03*
%TD*%
D18*
%TO.C,MT1*%
X68780000Y-329920000D03*
%TD*%
D26*
%TO.C,C29*%
X89521400Y-224510000D03*
X89521400Y-226410000D03*
%TD*%
D27*
%TO.C,C1*%
X131177400Y-226060000D03*
X131177400Y-224510000D03*
%TD*%
D28*
%TO.C,C96*%
X207475000Y-195500000D03*
X205925000Y-195500000D03*
%TD*%
D29*
%TO.C,L2*%
X127240400Y-226059500D03*
X127240400Y-224484500D03*
%TD*%
D26*
%TO.C,C51*%
X278184400Y-203410000D03*
X278184400Y-205310000D03*
%TD*%
D28*
%TO.C,C69*%
X176300000Y-195500000D03*
X174750000Y-195500000D03*
%TD*%
%TO.C,C94*%
X207400000Y-198200000D03*
X205850000Y-198200000D03*
%TD*%
D30*
%TO.C,C2*%
X125589400Y-224497000D03*
X125589400Y-226047000D03*
%TD*%
D27*
%TO.C,C114*%
X119570000Y-279305000D03*
X119570000Y-277755000D03*
%TD*%
D29*
%TO.C,L6*%
X112000400Y-226085000D03*
X112000400Y-224510000D03*
%TD*%
D28*
%TO.C,C81*%
X169430000Y-244410000D03*
X167880000Y-244410000D03*
%TD*%
D29*
%TO.C,L1*%
X129399400Y-226059500D03*
X129399400Y-224484500D03*
%TD*%
D27*
%TO.C,C17*%
X101713400Y-226060000D03*
X101713400Y-224510000D03*
%TD*%
D31*
%TO.C,C59*%
X269949400Y-209600000D03*
X271499400Y-209600000D03*
%TD*%
D27*
%TO.C,C34*%
X125270000Y-279245000D03*
X125270000Y-277695000D03*
%TD*%
D26*
%TO.C,C30*%
X79869400Y-224510000D03*
X79869400Y-226410000D03*
%TD*%
D29*
%TO.C,L10*%
X97776400Y-226085000D03*
X97776400Y-224510000D03*
%TD*%
D26*
%TO.C,C10*%
X123557400Y-224510000D03*
X123557400Y-226410000D03*
%TD*%
D31*
%TO.C,C45*%
X270264400Y-207730000D03*
X271814400Y-207730000D03*
%TD*%
D30*
%TO.C,C22*%
X81901400Y-224510000D03*
X81901400Y-226060000D03*
%TD*%
D28*
%TO.C,C92*%
X186675000Y-195500000D03*
X185125000Y-195500000D03*
%TD*%
D27*
%TO.C,C36*%
X92950000Y-264275000D03*
X92950000Y-262725000D03*
%TD*%
D30*
%TO.C,C53*%
X274314400Y-203570000D03*
X274314400Y-205120000D03*
%TD*%
D26*
%TO.C,C26*%
X94093400Y-224510000D03*
X94093400Y-226410000D03*
%TD*%
D28*
%TO.C,C82*%
X169400000Y-241840000D03*
X167850000Y-241840000D03*
%TD*%
D27*
%TO.C,C33*%
X85282500Y-279482500D03*
X85282500Y-277932500D03*
%TD*%
D31*
%TO.C,C63*%
X280775000Y-192050000D03*
X282325000Y-192050000D03*
%TD*%
D26*
%TO.C,C14*%
X108317400Y-224510000D03*
X108317400Y-226410000D03*
%TD*%
D27*
%TO.C,C108*%
X98710000Y-279250000D03*
X98710000Y-277700000D03*
%TD*%
D28*
%TO.C,C95*%
X197000000Y-195600000D03*
X195450000Y-195600000D03*
%TD*%
D31*
%TO.C,C71*%
X266650000Y-192000000D03*
X268200000Y-192000000D03*
%TD*%
%TO.C,C102*%
X233190000Y-211820000D03*
X234740000Y-211820000D03*
%TD*%
D28*
%TO.C,C105*%
X230475000Y-197920000D03*
X228925000Y-197920000D03*
%TD*%
%TO.C,C104*%
X220475000Y-197890000D03*
X218925000Y-197890000D03*
%TD*%
D30*
%TO.C,C60*%
X272624400Y-203585000D03*
X272624400Y-205135000D03*
%TD*%
D26*
%TO.C,C25*%
X103745400Y-224510000D03*
X103745400Y-226410000D03*
%TD*%
D30*
%TO.C,C6*%
X110349400Y-224510000D03*
X110349400Y-226060000D03*
%TD*%
D26*
%TO.C,C125*%
X254550000Y-309800000D03*
X254550000Y-311700000D03*
%TD*%
D27*
%TO.C,C43*%
X274584400Y-198635000D03*
X274584400Y-197085000D03*
%TD*%
D28*
%TO.C,C56*%
X278334400Y-209200000D03*
X276784400Y-209200000D03*
%TD*%
D29*
%TO.C,L9*%
X99935400Y-226085000D03*
X99935400Y-224510000D03*
%TD*%
D27*
%TO.C,C41*%
X278134400Y-212435000D03*
X278134400Y-210885000D03*
%TD*%
D26*
%TO.C,C13*%
X117969400Y-224510000D03*
X117969400Y-226410000D03*
%TD*%
D27*
%TO.C,C110*%
X138450000Y-279250000D03*
X138450000Y-277700000D03*
%TD*%
%TO.C,C109*%
X92950000Y-279250000D03*
X92950000Y-277700000D03*
%TD*%
D32*
%TO.C,L21*%
X271472000Y-184650000D03*
X269871800Y-184650000D03*
%TD*%
D28*
%TO.C,C38*%
X176275000Y-198200000D03*
X174725000Y-198200000D03*
%TD*%
%TO.C,C91*%
X186650000Y-198200000D03*
X185100000Y-198200000D03*
%TD*%
%TO.C,C93*%
X196975000Y-198100000D03*
X195425000Y-198100000D03*
%TD*%
D31*
%TO.C,C103*%
X233165000Y-214420000D03*
X234715000Y-214420000D03*
%TD*%
%TO.C,C64*%
X273550000Y-192050000D03*
X275100000Y-192050000D03*
%TD*%
D30*
%TO.C,C54*%
X276104400Y-203570000D03*
X276104400Y-205120000D03*
%TD*%
D31*
%TO.C,C70*%
X287975000Y-192100000D03*
X289525000Y-192100000D03*
%TD*%
D28*
%TO.C,C107*%
X250475000Y-197990000D03*
X248925000Y-197990000D03*
%TD*%
D26*
%TO.C,C9*%
X133209400Y-224510000D03*
X133209400Y-226410000D03*
%TD*%
D28*
%TO.C,C106*%
X240475000Y-198050000D03*
X238925000Y-198050000D03*
%TD*%
D27*
%TO.C,C5*%
X115937400Y-226060000D03*
X115937400Y-224510000D03*
%TD*%
D33*
%TO.C,C124*%
X254600000Y-306600000D03*
X254600000Y-304700000D03*
%TD*%
D27*
%TO.C,C112*%
X112700000Y-279250000D03*
X112700000Y-277700000D03*
%TD*%
D28*
%TO.C,C37*%
X298205800Y-212224600D03*
X296655800Y-212224600D03*
%TD*%
D27*
%TO.C,C35*%
X124700000Y-264275000D03*
X124700000Y-262725000D03*
%TD*%
D32*
%TO.C,L20*%
X286169900Y-184400000D03*
X284569700Y-184400000D03*
%TD*%
D27*
%TO.C,C115*%
X79470000Y-279430000D03*
X79470000Y-277880000D03*
%TD*%
D29*
%TO.C,L14*%
X83552400Y-226034000D03*
X83552400Y-224459000D03*
%TD*%
D27*
%TO.C,C113*%
X106950000Y-279250000D03*
X106950000Y-277700000D03*
%TD*%
%TO.C,C111*%
X132450000Y-279250000D03*
X132450000Y-277700000D03*
%TD*%
D29*
%TO.C,L5*%
X114159400Y-226085000D03*
X114159400Y-224510000D03*
%TD*%
D33*
%TO.C,C39*%
X274024400Y-209100000D03*
X274024400Y-207200000D03*
%TD*%
D27*
%TO.C,C21*%
X87489400Y-226060000D03*
X87489400Y-224510000D03*
%TD*%
D29*
%TO.C,L13*%
X85711400Y-226085000D03*
X85711400Y-224510000D03*
%TD*%
D30*
%TO.C,C18*%
X96125400Y-224510000D03*
X96125400Y-226060000D03*
%TD*%
D28*
%TO.C,C40*%
X278444400Y-207500000D03*
X276894400Y-207500000D03*
%TD*%
D27*
%TO.C,C42*%
X271484400Y-212615000D03*
X271484400Y-211065000D03*
%TD*%
M02*
