M48
; DRILL file {KiCad 9.0.9-9.0.9~ubuntu22.04.1} date 2026-06-27T11:13:02-0400
; FORMAT={-:-/ absolute / metric / decimal}
; #@! TF.CreationDate,2026-06-27T11:13:02-04:00
; #@! TF.GenerationSoftware,Kicad,Pcbnew,9.0.9-9.0.9~ubuntu22.04.1
; #@! TF.FileFunction,Plated,1,12,PTH
FMAT,2
METRIC
; #@! TA.AperFunction,Plated,PTH,ComponentDrill
T1C0.203
; #@! TA.AperFunction,Plated,PTH,ViaDrill
T2C0.300
; #@! TA.AperFunction,Plated,PTH,ComponentDrill
T3C0.300
; #@! TA.AperFunction,Plated,PTH,ComponentDrill
T4C0.460
; #@! TA.AperFunction,Plated,PTH,ComponentDrill
T5C0.610
; #@! TA.AperFunction,Plated,PTH,ComponentDrill
T6C0.900
; #@! TA.AperFunction,Plated,PTH,ComponentDrill
T7C1.000
; #@! TA.AperFunction,Plated,PTH,ComponentDrill
T8C1.016
; #@! TA.AperFunction,Plated,PTH,ComponentDrill
T9C1.050
; #@! TA.AperFunction,Plated,PTH,ComponentDrill
T10C1.575
; #@! TA.AperFunction,Plated,PTH,ComponentDrill
T11C1.800
; #@! TA.AperFunction,Plated,PTH,ComponentDrill
T12C4.300
%
G90
G05
T1
X152.206Y-193.246
X152.206Y-194.546
X152.206Y-195.646
X152.206Y-196.846
X153.706Y-193.296
X153.706Y-194.546
X153.706Y-195.646
X153.706Y-196.846
T2
X72.1Y-196.1
X72.99Y-285.48
X73.87Y-287.36
X75.39Y-284.08
X75.755Y-285.115
X75.77Y-286.41
X77.05Y-284.58
X77.34Y-282.68
X77.71Y-283.82
X79.3Y-242.6
X79.45Y-232.0
X79.45Y-236.0
X79.45Y-238.5
X79.49Y-277.0
X79.53Y-289.59
X79.6Y-280.5
X79.7Y-230.0
X79.87Y-227.63
X80.95Y-236.0
X81.089Y-238.611
X81.089Y-242.389
X81.139Y-232.061
X81.38Y-282.71
X81.4Y-258.9
X81.45Y-270.25
X81.5Y-246.6
X81.5Y-250.8
X81.899Y-227.399
X82.2Y-288.0
X82.45Y-286.25
X82.7Y-269.5
X82.8Y-242.5
X82.917Y-235.967
X82.95Y-232.0
X82.95Y-238.5
X83.1Y-246.6
X83.171Y-250.729
X83.25Y-258.85
X83.55Y-227.33
X83.8Y-326.4
X84.45Y-238.5
X84.543Y-242.407
X84.695Y-232.005
X84.695Y-235.995
X84.949Y-246.649
X85.0Y-258.9
X85.1Y-250.8
X85.1Y-254.7
X85.105Y-274.225
X85.2Y-271.25
X85.23Y-276.803
X85.27Y-289.44
X85.37Y-280.41
X85.7Y-227.3
X86.2Y-238.5
X86.2Y-242.6
X86.45Y-232.25
X86.45Y-236.0
X86.7Y-250.6
X86.8Y-258.8
X86.87Y-282.63
X86.88Y-285.3
X86.9Y-246.6
X86.96Y-284.03
X87.2Y-265.75
X87.487Y-227.287
X87.95Y-238.5
X87.95Y-242.5
X88.04Y-287.33
X88.2Y-236.0
X88.35Y-244.5
X88.42Y-286.6
X88.45Y-232.0
X88.6Y-268.6
X89.53Y-227.65
X89.88Y-273.43
X89.94Y-282.55
X89.95Y-269.0
X89.955Y-283.665
X91.375Y-213.925
X91.443Y-206.057
X92.225Y-210.175
X92.89Y-289.26
X92.906Y-280.784
X92.95Y-261.5
X92.95Y-265.75
X92.96Y-276.82
X94.17Y-227.63
X94.42Y-283.36
X94.425Y-282.075
X94.45Y-268.5
X94.55Y-207.1
X94.6Y-231.85
X94.6Y-236.2
X94.6Y-284.64
X94.601Y-238.401
X94.645Y-272.685
X94.7Y-242.6
X95.6Y-285.3
X96.1Y-282.46
X96.199Y-227.399
X96.379Y-238.421
X96.379Y-242.579
X96.4Y-231.9
X96.4Y-236.1
X96.44Y-269.35
X96.76Y-286.15
X97.6Y-270.19
X97.8Y-258.9
X97.85Y-227.33
X97.866Y-246.7
X97.866Y-250.966
X97.9Y-254.6
X97.93Y-275.15
X98.1Y-242.7
X98.15Y-231.95
X98.2Y-236.0
X98.2Y-238.4
X98.65Y-289.37
X98.71Y-276.78
X98.71Y-280.66
X99.5Y-258.9
X99.6Y-251.0
X99.644Y-246.556
X99.9Y-238.3
X99.9Y-242.7
X99.95Y-236.05
X99.98Y-270.52
X100.0Y-227.3
X100.47Y-282.16
X101.1Y-266.47
X101.233Y-254.7
X101.3Y-258.9
X101.4Y-246.5
X101.4Y-251.0
X101.7Y-236.05
X101.7Y-242.5
X101.713Y-238.212
X101.75Y-231.95
X101.787Y-227.287
X101.85Y-229.875
X102.95Y-254.75
X103.0Y-259.0
X103.2Y-246.6
X103.2Y-251.0
X103.49Y-284.03
X103.491Y-236.159
X103.491Y-238.409
X103.5Y-231.95
X103.5Y-242.5
X103.745Y-237.225
X103.83Y-227.65
X104.35Y-207.825
X104.56Y-270.42
X105.2Y-282.0
X105.24Y-273.52
X105.475Y-213.975
X105.65Y-205.975
X105.675Y-218.3
X106.735Y-305.365
X106.83Y-289.38
X106.91Y-276.22
X106.95Y-280.5
X107.265Y-305.895
X107.675Y-205.8
X108.1Y-213.0
X108.25Y-230.25
X108.37Y-227.73
X109.0Y-242.6
X109.1Y-231.7
X109.1Y-238.5
X109.199Y-236.051
X110.399Y-227.499
X110.42Y-283.43
X110.699Y-236.051
X110.85Y-231.85
X110.9Y-238.5
X110.9Y-242.6
X110.98Y-270.06
X111.16Y-287.97
X111.18Y-285.33
X111.19Y-287.05
X111.2Y-254.7
X111.25Y-282.93
X111.3Y-251.0
X111.3Y-259.0
X111.4Y-246.5
X111.83Y-269.26
X112.05Y-227.43
X112.56Y-289.56
X112.6Y-238.4
X112.6Y-242.5
X112.666Y-236.019
X112.7Y-231.8
X112.7Y-276.53
X112.7Y-280.5
X113.1Y-246.7
X113.16Y-291.34
X113.2Y-251.0
X113.2Y-254.8
X113.2Y-259.1
X113.253Y-292.247
X113.35Y-265.36
X113.52Y-268.43
X113.91Y-283.33
X114.2Y-227.4
X114.26Y-286.63
X114.35Y-238.45
X114.4Y-242.5
X114.4Y-284.83
X114.413Y-231.9
X114.444Y-236.047
X114.734Y-283.285
X114.8Y-259.0
X114.9Y-251.0
X114.9Y-254.7
X115.0Y-246.7
X115.485Y-283.56
X115.987Y-227.387
X116.191Y-238.409
X116.199Y-236.051
X116.2Y-232.0
X116.2Y-242.5
X116.35Y-275.65
X116.56Y-272.69
X116.6Y-251.0
X116.6Y-259.1
X116.7Y-246.6
X116.7Y-254.7
X117.01Y-286.77
X117.9Y-232.0
X117.949Y-236.051
X118.0Y-238.4
X118.0Y-242.6
X118.03Y-227.75
X118.25Y-276.18
X118.375Y-210.725
X118.65Y-207.4
X119.55Y-213.9
X119.56Y-289.37
X119.58Y-276.73
X119.61Y-280.53
X119.95Y-218.325
X120.34Y-266.66
X120.4Y-271.33
X120.777Y-298.227
X120.905Y-282.075
X121.307Y-297.697
X121.4Y-205.6
X121.607Y-285.113
X121.665Y-290.455
X121.85Y-221.15
X122.22Y-282.42
X122.295Y-283.575
X122.32Y-286.3
X122.615Y-285.0
X123.46Y-268.6
X123.56Y-227.62
X124.5Y-242.8
X124.6Y-231.9
X124.6Y-236.1
X124.7Y-261.5
X124.7Y-265.5
X125.26Y-276.76
X125.33Y-272.83
X125.344Y-280.604
X125.36Y-289.48
X125.589Y-227.389
X126.0Y-237.375
X126.2Y-242.8
X126.3Y-238.5
X126.375Y-236.125
X126.4Y-231.5
X126.4Y-266.61
X126.4Y-267.95
X126.43Y-269.22
X126.5Y-259.0
X126.6Y-246.8
X126.6Y-251.0
X126.6Y-254.6
X127.08Y-282.18
X127.113Y-309.217
X127.24Y-227.32
X127.34Y-286.3
X127.5Y-287.24
X127.643Y-309.747
X127.74Y-269.95
X127.75Y-283.36
X128.0Y-242.8
X128.1Y-231.9
X128.1Y-238.4
X128.15Y-236.125
X128.32Y-288.11
X128.4Y-246.7
X128.4Y-251.0
X128.4Y-254.7
X128.4Y-258.8
X128.4Y-284.43
X128.96Y-310.525
X128.96Y-311.275
X129.39Y-227.29
X129.6Y-264.93
X129.875Y-236.15
X129.9Y-238.4
X129.95Y-276.59
X130.0Y-242.8
X130.06Y-282.77
X130.1Y-250.9
X130.2Y-246.8
X130.3Y-254.6
X130.3Y-258.9
X130.65Y-285.54
X130.875Y-270.275
X131.177Y-227.277
X131.29Y-287.91
X131.375Y-282.075
X131.6Y-231.9
X131.6Y-302.045
X131.6Y-302.795
X131.685Y-238.4
X131.7Y-236.05
X131.7Y-242.7
X132.0Y-246.8
X132.0Y-251.0
X132.1Y-254.8
X132.2Y-258.8
X132.44Y-270.93
X132.49Y-276.7
X132.5Y-280.35
X132.59Y-289.25
X132.97Y-213.87
X133.0Y-231.0
X133.22Y-227.64
X133.4Y-232.1
X133.475Y-235.975
X133.5Y-238.2
X133.6Y-242.6
X134.455Y-302.695
X134.57Y-273.97
X134.985Y-302.165
X135.77Y-207.11
X136.05Y-283.42
X136.5Y-217.6
X137.0Y-211.2
X138.33Y-289.35
X138.43Y-276.61
X138.48Y-280.62
X139.97Y-282.46
X140.71Y-284.23
X141.2Y-287.25
X142.465Y-297.995
X143.23Y-286.4
X143.27Y-282.67
X143.59Y-298.5
X143.9Y-194.7
X144.22Y-287.97
X144.225Y-92.65
X144.998Y-295.808
X145.3Y-195.4
X146.0Y-196.1
X146.19Y-295.53
X146.75Y-296.65
X146.8Y-196.8
X147.4Y-187.1
X147.5Y-197.5
X147.9Y-297.32
X148.3Y-198.3
X149.08Y-295.53
X149.21Y-294.29
X150.1Y-190.5
X150.44Y-306.57
X150.5Y-200.4
X150.6Y-202.3
X151.64Y-306.45
X151.8Y-187.1
X151.8Y-189.8
X151.85Y-203.35
X152.66Y-306.13
X153.2Y-190.7
X153.3Y-186.8
X153.31Y-304.81
X153.82Y-306.37
X154.7Y-309.52
X154.883Y-201.883
X155.01Y-300.5
X155.1Y-187.2
X155.18Y-305.02
X155.66Y-310.55
X156.08Y-306.31
X157.66Y-312.15
X157.8Y-187.2
X158.28Y-311.1
X158.3Y-201.7
X158.4Y-200.7
X159.1Y-198.8
X159.2Y-206.3
X159.41Y-307.19
X159.9Y-203.6
X160.9Y-198.7
X161.915Y-187.285
X162.0Y-203.6
X162.48Y-240.25
X162.53Y-245.99
X162.9Y-206.2
X163.96Y-238.95
X165.125Y-302.335
X165.2Y-204.5
X165.2Y-227.2
X165.655Y-301.805
X165.7Y-202.3
X166.2Y-222.8
X166.4Y-203.4
X166.5Y-220.9
X166.8Y-207.7
X166.92Y-244.43
X166.96Y-241.82
X167.4Y-217.5
X167.5Y-227.9
X168.1Y-207.7
X168.275Y-305.555
X168.3Y-226.9
X168.7Y-203.4
X168.805Y-305.025
X169.15Y-247.39
X169.2Y-225.2
X169.5Y-194.0
X169.6Y-199.7
X169.8Y-217.6
X169.8Y-238.88
X170.4Y-213.2
X170.45Y-241.69
X170.46Y-244.51
X170.6Y-212.0
X170.9Y-203.4
X171.1Y-192.5
X171.9Y-217.2
X172.3Y-204.5
X173.4Y-216.2
X173.7Y-195.5
X173.7Y-198.2
X173.986Y-288.815
X174.516Y-288.284
X175.3Y-207.8
X175.3Y-212.9
X176.345Y-200.954
X176.995Y-192.105
X177.645Y-195.5
X177.645Y-198.3
X179.9Y-199.8
X180.1Y-194.0
X180.546Y-285.077
X181.296Y-285.077
X181.5Y-192.6
X184.2Y-198.2
X184.3Y-195.5
X186.7Y-201.1
X187.3Y-192.6
X187.964Y-195.4
X187.964Y-198.3
X190.3Y-199.8
X190.4Y-194.0
X191.8Y-192.9
X194.4Y-198.1
X194.5Y-195.6
X197.0Y-201.1
X197.632Y-192.732
X198.3Y-195.5
X198.3Y-198.2
X200.7Y-194.0
X200.8Y-199.7
X202.1Y-192.6
X204.8Y-195.6
X204.9Y-198.2
X207.3Y-201.0
X207.9Y-192.6
X208.6Y-195.4
X208.6Y-198.2
X217.8Y-198.12
X218.19Y-187.94
X219.065Y-192.51
X219.85Y-310.25
X219.95Y-187.85
X220.1Y-311.8
X220.335Y-201.94
X220.34Y-192.45
X221.62Y-197.97
X223.1Y-269.0
X223.1Y-273.1
X223.9Y-273.6
X224.85Y-265.75
X224.85Y-270.1
X225.3Y-268.3
X225.6Y-258.4
X227.1Y-258.55
X227.45Y-259.9
X227.75Y-254.4
X227.795Y-198.065
X228.04Y-187.83
X228.725Y-260.175
X229.065Y-192.275
X229.79Y-187.79
X230.1Y-250.5
X230.33Y-201.64
X230.36Y-192.29
X230.75Y-243.6
X231.605Y-198.085
X231.7Y-244.5
X232.0Y-211.81
X232.01Y-214.48
X232.63Y-217.6
X232.75Y-244.8
X233.31Y-208.89
X233.72Y-208.13
X234.75Y-244.5
X235.25Y-208.49
X235.35Y-263.25
X235.67Y-211.82
X235.72Y-214.44
X236.5Y-264.7
X236.85Y-203.13
X237.45Y-262.45
X237.78Y-198.21
X237.91Y-187.88
X238.15Y-270.35
X238.3Y-264.45
X238.3Y-269.0
X238.51Y-217.28
X239.08Y-192.36
X239.15Y-208.94
X239.7Y-187.76
X239.8Y-215.97
X239.85Y-271.6
X240.32Y-201.69
X240.335Y-192.465
X240.5Y-265.4
X240.7Y-263.65
X240.7Y-269.35
X241.59Y-198.2
X242.65Y-270.6
X243.55Y-272.9
X244.1Y-270.8
X244.425Y-273.825
X245.03Y-202.66
X247.795Y-198.145
X248.05Y-187.91
X249.09Y-192.46
X249.85Y-187.85
X250.31Y-201.94
X250.33Y-192.51
X251.2Y-307.6
X251.6Y-198.12
X254.6Y-308.1
X255.8Y-311.7
X256.0Y-304.7
X256.8Y-171.9
X258.9Y-309.1
X259.0Y-308.1
X259.07Y-298.85
X260.39Y-304.775
X261.584Y-204.44
X261.8Y-309.3
X262.1Y-192.45
X262.55Y-198.65
X262.8Y-200.5
X263.7Y-195.9
X264.9Y-306.8
X265.05Y-191.45
X266.225Y-208.525
X266.25Y-210.05
X266.5Y-298.5
X266.65Y-193.0
X268.2Y-192.95
X268.2Y-299.25
X268.2Y-330.5
X268.929Y-209.626
X269.064Y-207.8
X269.38Y-199.94
X269.85Y-191.4
X271.094Y-199.91
X271.2Y-215.95
X271.5Y-183.35
X271.504Y-213.39
X271.564Y-205.15
X271.8Y-218.94
X271.814Y-206.77
X271.875Y-191.3
X272.389Y-211.065
X272.454Y-209.6
X272.494Y-196.66
X272.604Y-202.46
X272.65Y-192.05
X273.12Y-285.02
X273.134Y-199.92
X273.2Y-287.3
X273.2Y-289.6
X273.2Y-291.7
X273.27Y-218.94
X274.034Y-210.12
X274.15Y-221.59
X274.244Y-202.39
X274.3Y-217.25
X274.304Y-205.98
X274.554Y-199.76
X275.1Y-193.05
X275.384Y-206.93
X275.474Y-199.7
X275.704Y-197.09
X275.784Y-209.21
X275.894Y-207.5
X276.014Y-202.49
X276.104Y-206.0
X276.65Y-191.3
X277.094Y-199.91
X277.124Y-211.09
X277.5Y-284.1
X277.5Y-286.1
X277.5Y-288.4
X277.5Y-290.6
X277.5Y-293.0
X277.604Y-215.84
X278.174Y-213.39
X278.594Y-199.88
X279.12Y-191.23
X279.474Y-203.43
X279.514Y-205.31
X279.574Y-209.24
X279.684Y-207.63
X279.8Y-284.1
X279.85Y-192.05
X279.9Y-292.9
X281.15Y-254.2
X281.4Y-248.0
X282.05Y-265.75
X282.05Y-268.41
X282.3Y-192.95
X282.5Y-246.75
X282.504Y-208.14
X282.614Y-210.134
X282.79Y-277.47
X283.05Y-203.45
X283.86Y-191.29
X283.95Y-265.35
X284.3Y-245.7
X284.4Y-277.55
X284.51Y-263.24
X284.55Y-243.8
X285.5Y-248.0
X285.65Y-246.75
X285.7Y-242.75
X285.75Y-267.6
X285.8Y-266.45
X285.83Y-262.19
X285.84Y-283.23
X286.0Y-281.4
X286.2Y-183.1
X286.35Y-191.15
X287.05Y-192.1
X287.1Y-266.45
X287.5Y-277.62
X287.7Y-242.75
X287.75Y-246.7
X288.0Y-262.24
X288.2Y-291.9
X288.25Y-200.6
X288.25Y-202.8
X288.4Y-282.5
X288.75Y-196.65
X289.0Y-272.1
X289.03Y-263.25
X289.1Y-243.75
X289.1Y-277.62
X289.2Y-292.7
X289.5Y-193.1
X289.6Y-198.5
X290.0Y-272.1
X290.2Y-290.32
X291.15Y-191.15
X291.95Y-275.45
X292.4Y-277.48
X292.5Y-214.35
X292.5Y-261.3
X292.55Y-287.3
X292.65Y-244.85
X293.33Y-290.12
X293.55Y-260.15
X293.6Y-306.9
X293.85Y-243.7
X294.37Y-275.76
X294.8Y-300.7
X294.9Y-286.4
X295.0Y-290.1
X295.5Y-260.2
X295.75Y-243.6
X295.8Y-283.5
X295.8Y-285.2
X295.8Y-307.0
X295.873Y-289.027
X295.9Y-287.3
X296.11Y-277.04
X296.5Y-261.3
X296.61Y-296.62
X296.65Y-210.45
X296.67Y-251.07
X296.7Y-253.4
X296.8Y-248.85
X296.8Y-265.5
X296.8Y-267.7
X296.8Y-270.0
X296.85Y-244.8
X297.2Y-171.55
X297.2Y-229.5
X297.69Y-296.61
X298.0Y-307.0
X298.7Y-302.4
X298.81Y-296.58
X299.8Y-304.2
X299.83Y-296.59
X299.971Y-212.2
X300.3Y-300.6
X300.39Y-297.48
X300.4Y-298.69
X301.7Y-214.35
X301.75Y-210.15
T3
X168.3Y-210.486
X169.1Y-210.486
X169.9Y-210.486
X286.992Y-285.587
X286.992Y-286.988
X287.592Y-284.988
X287.592Y-286.387
X288.392Y-285.587
X288.492Y-286.988
X288.5Y-269.4
X288.53Y-250.365
X288.992Y-284.988
X288.992Y-286.387
X289.0Y-268.9
X289.0Y-269.9
X289.03Y-249.865
X289.03Y-250.865
X289.5Y-269.4
X289.53Y-250.365
X296.382Y-298.868
X296.382Y-299.668
X296.382Y-300.793
X297.382Y-298.868
X297.382Y-299.668
X297.382Y-300.793
X298.382Y-298.868
X298.382Y-299.668
X298.382Y-300.793
T4
X81.518Y-208.43
X81.518Y-214.3
X81.918Y-211.37
X81.918Y-217.24
X82.318Y-209.82
X82.318Y-215.69
X82.718Y-212.75
X82.718Y-218.62
X83.118Y-208.43
X83.118Y-214.3
X83.518Y-211.37
X83.518Y-217.24
X83.918Y-209.82
X83.918Y-215.69
X84.318Y-212.75
X84.318Y-218.62
X84.718Y-208.43
X84.718Y-214.3
X85.118Y-211.37
X85.118Y-217.24
X85.518Y-209.82
X85.518Y-215.69
X85.918Y-212.75
X85.918Y-218.62
X86.318Y-208.43
X86.318Y-214.3
X86.718Y-211.37
X86.718Y-217.24
X87.118Y-209.82
X87.118Y-215.69
X87.518Y-212.75
X87.518Y-218.62
X87.918Y-208.43
X87.918Y-214.3
X88.318Y-211.37
X88.318Y-217.24
X88.718Y-209.82
X88.718Y-215.69
X89.118Y-212.75
X89.118Y-218.62
X95.768Y-208.43
X95.768Y-214.3
X96.168Y-211.37
X96.168Y-217.24
X96.568Y-209.82
X96.568Y-215.69
X96.968Y-212.75
X96.968Y-218.62
X97.368Y-208.43
X97.368Y-214.3
X97.768Y-211.37
X97.768Y-217.24
X98.168Y-209.82
X98.168Y-215.69
X98.568Y-212.75
X98.568Y-218.62
X98.968Y-208.43
X98.968Y-214.3
X99.368Y-211.37
X99.368Y-217.24
X99.768Y-209.82
X99.768Y-215.69
X100.168Y-212.75
X100.168Y-218.62
X100.568Y-208.43
X100.568Y-214.3
X100.968Y-211.37
X100.968Y-217.24
X101.368Y-209.82
X101.368Y-215.69
X101.768Y-212.75
X101.768Y-218.62
X102.168Y-208.43
X102.168Y-214.3
X102.568Y-211.37
X102.568Y-217.24
X102.968Y-209.82
X102.968Y-215.69
X103.368Y-212.75
X103.368Y-218.62
X110.018Y-208.43
X110.018Y-214.3
X110.418Y-211.37
X110.418Y-217.24
X110.818Y-209.82
X110.818Y-215.69
X111.218Y-212.75
X111.218Y-218.62
X111.618Y-208.43
X111.618Y-214.3
X112.018Y-211.37
X112.018Y-217.24
X112.418Y-209.82
X112.418Y-215.69
X112.818Y-212.75
X112.818Y-218.62
X113.218Y-208.43
X113.218Y-214.3
X113.618Y-211.37
X113.618Y-217.24
X114.018Y-209.82
X114.018Y-215.69
X114.418Y-212.75
X114.418Y-218.62
X114.818Y-208.43
X114.818Y-214.3
X115.218Y-211.37
X115.218Y-217.24
X115.618Y-209.82
X115.618Y-215.69
X116.018Y-212.75
X116.018Y-218.62
X116.418Y-208.43
X116.418Y-214.3
X116.818Y-211.37
X116.818Y-217.24
X117.218Y-209.82
X117.218Y-215.69
X117.618Y-212.75
X117.618Y-218.62
X124.268Y-208.43
X124.268Y-214.3
X124.668Y-211.37
X124.668Y-217.24
X125.068Y-209.82
X125.068Y-215.69
X125.468Y-212.75
X125.468Y-218.62
X125.868Y-208.43
X125.868Y-214.3
X126.268Y-211.37
X126.268Y-217.24
X126.668Y-209.82
X126.668Y-215.69
X127.068Y-212.75
X127.068Y-218.62
X127.468Y-208.43
X127.468Y-214.3
X127.868Y-211.37
X127.868Y-217.24
X128.268Y-209.82
X128.268Y-215.69
X128.668Y-212.75
X128.668Y-218.62
X129.068Y-208.43
X129.068Y-214.3
X129.468Y-211.37
X129.468Y-217.24
X129.868Y-209.82
X129.868Y-215.69
X130.268Y-212.75
X130.268Y-218.62
X130.668Y-208.43
X130.668Y-214.3
X131.068Y-211.37
X131.068Y-217.24
X131.468Y-209.82
X131.468Y-215.69
X131.868Y-212.75
X131.868Y-218.62
T5
X118.924Y-313.784
X118.924Y-315.284
X118.924Y-316.784
X118.924Y-318.284
X118.924Y-319.784
X118.924Y-321.284
X121.424Y-313.784
X121.424Y-315.284
X121.424Y-316.784
X121.424Y-318.284
X121.424Y-319.784
X121.424Y-321.284
X123.924Y-313.784
X123.924Y-315.284
X123.924Y-316.784
X123.924Y-318.284
X123.924Y-319.784
X123.924Y-321.284
X126.424Y-313.784
X126.424Y-315.284
X126.424Y-316.784
X126.424Y-318.284
X126.424Y-319.784
X126.424Y-321.284
X128.924Y-313.784
X128.924Y-315.284
X128.924Y-316.784
X128.924Y-318.284
X128.924Y-319.784
X128.924Y-321.284
X131.424Y-313.784
X131.424Y-315.284
X131.424Y-316.784
X131.424Y-318.284
X131.424Y-319.784
X131.424Y-321.284
X133.924Y-313.784
X133.924Y-315.284
X133.924Y-316.784
X133.924Y-318.284
X133.924Y-319.784
X133.924Y-321.284
X136.424Y-313.784
X136.424Y-315.284
X136.424Y-316.784
X136.424Y-318.284
X136.424Y-319.784
X136.424Y-321.284
X138.924Y-313.784
X138.924Y-315.284
X138.924Y-316.784
X138.924Y-318.284
X138.924Y-319.784
X138.924Y-321.284
X141.424Y-313.784
X141.424Y-315.284
X141.424Y-316.784
X141.424Y-318.284
X141.424Y-319.784
X141.424Y-321.284
X144.324Y-313.784
X144.324Y-315.284
X144.324Y-316.784
X144.324Y-318.284
X144.324Y-319.784
X144.324Y-321.284
X146.824Y-313.784
X146.824Y-315.284
X146.824Y-316.784
X146.824Y-318.284
X146.824Y-319.784
X146.824Y-321.284
X149.324Y-313.784
X149.324Y-315.284
X149.324Y-316.784
X149.324Y-318.284
X149.324Y-319.784
X149.324Y-321.284
X151.824Y-313.784
X151.824Y-315.284
X151.824Y-316.784
X151.824Y-318.284
X151.824Y-319.784
X151.824Y-321.284
X154.324Y-313.784
X154.324Y-315.284
X154.324Y-316.784
X154.324Y-318.284
X154.324Y-319.784
X154.324Y-321.284
X156.824Y-313.784
X156.824Y-315.284
X156.824Y-316.784
X156.824Y-318.284
X156.824Y-319.784
X156.824Y-321.284
X159.324Y-313.784
X159.324Y-315.284
X159.324Y-316.784
X159.324Y-318.284
X159.324Y-319.784
X159.324Y-321.284
X161.824Y-313.784
X161.824Y-315.284
X161.824Y-316.784
X161.824Y-318.284
X161.824Y-319.784
X161.824Y-321.284
X164.324Y-313.784
X164.324Y-315.284
X164.324Y-316.784
X164.324Y-318.284
X164.324Y-319.784
X164.324Y-321.284
X166.824Y-313.784
X166.824Y-315.284
X166.824Y-316.784
X166.824Y-318.284
X166.824Y-319.784
X166.824Y-321.284
X169.724Y-313.784
X169.724Y-315.284
X169.724Y-316.784
X169.724Y-318.284
X169.724Y-319.784
X169.724Y-321.284
X172.224Y-313.784
X172.224Y-315.284
X172.224Y-316.784
X172.224Y-318.284
X172.224Y-319.784
X172.224Y-321.284
X174.724Y-313.784
X174.724Y-315.284
X174.724Y-316.784
X174.724Y-318.284
X174.724Y-319.784
X174.724Y-321.284
X177.224Y-313.784
X177.224Y-315.284
X177.224Y-316.784
X177.224Y-318.284
X177.224Y-319.784
X177.224Y-321.284
X179.724Y-313.784
X179.724Y-315.284
X179.724Y-316.784
X179.724Y-318.284
X179.724Y-319.784
X179.724Y-321.284
X182.224Y-313.784
X182.224Y-315.284
X182.224Y-316.784
X182.224Y-318.284
X182.224Y-319.784
X182.224Y-321.284
X184.724Y-313.784
X184.724Y-315.284
X184.724Y-316.784
X184.724Y-318.284
X184.724Y-319.784
X184.724Y-321.284
X187.224Y-313.784
X187.224Y-315.284
X187.224Y-316.784
X187.224Y-318.284
X187.224Y-319.784
X187.224Y-321.284
X189.724Y-313.784
X189.724Y-315.284
X189.724Y-316.784
X189.724Y-318.284
X189.724Y-319.784
X189.724Y-321.284
X192.224Y-313.784
X192.224Y-315.284
X192.224Y-316.784
X192.224Y-318.284
X192.224Y-319.784
X192.224Y-321.284
X195.124Y-313.784
X195.124Y-315.284
X195.124Y-316.784
X195.124Y-318.284
X195.124Y-319.784
X195.124Y-321.284
X197.624Y-313.784
X197.624Y-315.284
X197.624Y-316.784
X197.624Y-318.284
X197.624Y-319.784
X197.624Y-321.284
X200.124Y-313.784
X200.124Y-315.284
X200.124Y-316.784
X200.124Y-318.284
X200.124Y-319.784
X200.124Y-321.284
X202.624Y-313.784
X202.624Y-315.284
X202.624Y-316.784
X202.624Y-318.284
X202.624Y-319.784
X202.624Y-321.284
X205.124Y-313.784
X205.124Y-315.284
X205.124Y-316.784
X205.124Y-318.284
X205.124Y-319.784
X205.124Y-321.284
X207.624Y-313.784
X207.624Y-315.284
X207.624Y-316.784
X207.624Y-318.284
X207.624Y-319.784
X207.624Y-321.284
X210.124Y-313.784
X210.124Y-315.284
X210.124Y-316.784
X210.124Y-318.284
X210.124Y-319.784
X210.124Y-321.284
X212.624Y-313.784
X212.624Y-315.284
X212.624Y-316.784
X212.624Y-318.284
X212.624Y-319.784
X212.624Y-321.284
X215.124Y-313.784
X215.124Y-315.284
X215.124Y-316.784
X215.124Y-318.284
X215.124Y-319.784
X215.124Y-321.284
X217.624Y-313.784
X217.624Y-315.284
X217.624Y-316.784
X217.624Y-318.284
X217.624Y-319.784
X217.624Y-321.284
X220.524Y-313.784
X220.524Y-315.284
X220.524Y-316.784
X220.524Y-318.284
X220.524Y-319.784
X220.524Y-321.284
X223.024Y-313.784
X223.024Y-315.284
X223.024Y-316.784
X223.024Y-318.284
X223.024Y-319.784
X223.024Y-321.284
X225.524Y-313.784
X225.524Y-315.284
X225.524Y-316.784
X225.524Y-318.284
X225.524Y-319.784
X225.524Y-321.284
X228.024Y-313.784
X228.024Y-315.284
X228.024Y-316.784
X228.024Y-318.284
X228.024Y-319.784
X228.024Y-321.284
X230.524Y-313.784
X230.524Y-315.284
X230.524Y-316.784
X230.524Y-318.284
X230.524Y-319.784
X230.524Y-321.284
X233.024Y-313.784
X233.024Y-315.284
X233.024Y-316.784
X233.024Y-318.284
X233.024Y-319.784
X233.024Y-321.284
X235.524Y-313.784
X235.524Y-315.284
X235.524Y-316.784
X235.524Y-318.284
X235.524Y-319.784
X235.524Y-321.284
X238.024Y-313.784
X238.024Y-315.284
X238.024Y-316.784
X238.024Y-318.284
X238.024Y-319.784
X238.024Y-321.284
X240.524Y-313.784
X240.524Y-315.284
X240.524Y-316.784
X240.524Y-318.284
X240.524Y-319.784
X240.524Y-321.284
X243.024Y-313.784
X243.024Y-315.284
X243.024Y-316.784
X243.024Y-318.284
X243.024Y-319.784
X243.024Y-321.284
T6
X146.16Y-175.0
X146.16Y-180.08
X148.7Y-175.0
X148.7Y-180.08
X151.24Y-175.0
X151.24Y-180.08
X156.16Y-175.0
X156.16Y-180.08
X158.7Y-175.0
X158.7Y-180.08
X161.24Y-175.0
X161.24Y-180.08
X171.16Y-175.0
X171.16Y-180.08
X173.7Y-175.0
X173.7Y-180.08
X176.24Y-175.0
X176.24Y-180.08
X181.16Y-175.0
X181.16Y-180.08
X183.7Y-175.0
X183.7Y-180.08
X186.24Y-175.0
X186.24Y-180.08
X191.16Y-175.0
X191.16Y-180.08
X193.7Y-175.0
X193.7Y-180.08
X196.24Y-175.0
X196.24Y-180.08
X201.16Y-175.0
X201.16Y-180.08
X203.7Y-175.0
X203.7Y-180.08
X206.24Y-175.0
X206.24Y-180.08
X216.16Y-175.0
X216.16Y-180.08
X218.7Y-175.0
X218.7Y-180.08
X221.24Y-175.0
X221.24Y-180.08
X226.16Y-175.0
X226.16Y-180.08
X228.7Y-175.0
X228.7Y-180.08
X231.24Y-175.0
X231.24Y-180.08
X236.16Y-175.0
X236.16Y-180.08
X238.7Y-175.0
X238.7Y-180.08
X241.24Y-175.0
X241.24Y-180.08
X246.16Y-175.0
X246.16Y-180.08
X248.7Y-175.0
X248.7Y-180.08
X251.24Y-175.0
X251.24Y-180.08
T7
X265.2Y-291.4
X277.1Y-280.0
T8
X262.607Y-166.344
X262.607Y-168.122
X264.944Y-180.822
X266.214Y-178.282
X267.484Y-180.822
X268.754Y-178.282
X270.024Y-180.822
X271.294Y-178.282
X272.564Y-180.822
X273.834Y-178.282
X275.942Y-169.9
X275.942Y-171.678
X276.806Y-166.344
X276.806Y-168.122
X278.914Y-180.822
X280.184Y-178.282
X281.454Y-180.822
X282.724Y-178.282
X283.994Y-180.822
X285.264Y-178.282
X286.534Y-180.822
X287.804Y-178.282
X290.141Y-166.344
X290.141Y-168.122
T9
X78.193Y-170.0
X78.193Y-178.0
X78.193Y-186.0
X78.193Y-194.0
X78.193Y-202.0
X81.318Y-221.625
X85.318Y-221.625
X89.318Y-221.625
X92.443Y-170.0
X92.443Y-178.0
X92.443Y-186.0
X92.443Y-194.0
X92.443Y-202.0
X95.568Y-221.625
X99.568Y-221.625
X103.568Y-221.625
X106.693Y-170.0
X106.693Y-178.0
X106.693Y-186.0
X106.693Y-194.0
X106.693Y-202.0
X109.818Y-221.625
X113.818Y-221.625
X117.818Y-221.625
X120.943Y-170.0
X120.943Y-178.0
X120.943Y-186.0
X120.943Y-194.0
X120.943Y-202.0
X124.068Y-221.625
X128.068Y-221.625
X132.068Y-221.625
X135.193Y-170.0
X135.193Y-178.0
X135.193Y-186.0
X135.193Y-194.0
X135.193Y-202.0
T10
X260.88Y-174.98
X277.009Y-186.41
X291.868Y-174.98
T11
X289.2Y-314.8
X294.7Y-314.8
T12
X68.78Y-180.06
X68.78Y-329.92
X111.96Y-329.92
X250.644Y-329.92
X299.92Y-180.06
X299.92Y-329.92
M30
