%TF.GenerationSoftware,KiCad,Pcbnew,9.0.9-9.0.9~ubuntu22.04.1*%
%TF.CreationDate,2026-06-27T11:12:59-04:00*%
%TF.ProjectId,cc-afe,63632d61-6665-42e6-9b69-6361645f7063,rev?*%
%TF.SameCoordinates,Original*%
%TF.FileFunction,Soldermask,Top*%
%TF.FilePolarity,Negative*%
%FSLAX46Y46*%
G04 Gerber Fmt 4.6, Leading zero omitted, Abs format (unit mm)*
G04 Created by KiCad (PCBNEW 9.0.9-9.0.9~ubuntu22.04.1) date 2026-06-27 11:12:59*
%MOMM*%
%LPD*%
G01*
G04 APERTURE LIST*
G04 Aperture macros list*
%AMRoundRect*
0 Rectangle with rounded corners*
0 $1 Rounding radius*
0 $2 $3 $4 $5 $6 $7 $8 $9 X,Y pos of 4 corners*
0 Add a 4 corners polygon primitive as box body*
4,1,4,$2,$3,$4,$5,$6,$7,$8,$9,$2,$3,0*
0 Add four circle primitives for the rounded corners*
1,1,$1+$1,$2,$3*
1,1,$1+$1,$4,$5*
1,1,$1+$1,$6,$7*
1,1,$1+$1,$8,$9*
0 Add four rect primitives between the rounded corners*
20,1,$1+$1,$2,$3,$4,$5,0*
20,1,$1+$1,$4,$5,$6,$7,0*
20,1,$1+$1,$6,$7,$8,$9,0*
20,1,$1+$1,$8,$9,$2,$3,0*%
G04 Aperture macros list end*
%ADD10C,1.226200*%
%ADD11C,1.576200*%
%ADD12C,0.010000*%
%ADD13R,0.228600X0.812800*%
%ADD14R,0.812800X0.228600*%
%ADD15R,1.219200X1.219200*%
%ADD16C,0.500000*%
%ADD17R,0.381000X0.381000*%
%ADD18RoundRect,0.062500X0.062500X-0.362500X0.062500X0.362500X-0.062500X0.362500X-0.062500X-0.362500X0*%
%ADD19R,2.380000X1.650000*%
%ADD20O,1.084000X0.464000*%
%ADD21O,0.464000X1.084000*%
%ADD22RoundRect,0.102000X-1.025000X-1.025000X1.025000X-1.025000X1.025000X1.025000X-1.025000X1.025000X0*%
%ADD23RoundRect,0.066600X-0.322900X-0.155400X0.322900X-0.155400X0.322900X0.155400X-0.322900X0.155400X0*%
%ADD24RoundRect,0.066600X-0.155400X-0.322900X0.155400X-0.322900X0.155400X0.322900X-0.155400X0.322900X0*%
%ADD25RoundRect,0.082700X-1.369300X-0.744300X1.369300X-0.744300X1.369300X0.744300X-1.369300X0.744300X0*%
%ADD26RoundRect,0.052700X-1.399300X-0.474300X1.399300X-0.474300X1.399300X0.474300X-1.399300X0.474300X0*%
%ADD27RoundRect,0.218750X0.256250X-0.218750X0.256250X0.218750X-0.256250X0.218750X-0.256250X-0.218750X0*%
%ADD28RoundRect,0.218750X-0.256250X0.218750X-0.256250X-0.218750X0.256250X-0.218750X0.256250X0.218750X0*%
%ADD29RoundRect,0.218750X-0.218750X-0.256250X0.218750X-0.256250X0.218750X0.256250X-0.218750X0.256250X0*%
%ADD30RoundRect,0.102000X-0.736600X-0.177800X0.736600X-0.177800X0.736600X0.177800X-0.736600X0.177800X0*%
%ADD31C,0.635000*%
%ADD32RoundRect,0.102000X-1.625600X-2.514600X1.625600X-2.514600X1.625600X2.514600X-1.625600X2.514600X0*%
%ADD33C,1.600000*%
%ADD34C,2.200000*%
%ADD35RoundRect,0.250000X-0.250000X-0.475000X0.250000X-0.475000X0.250000X0.475000X-0.250000X0.475000X0*%
%ADD36RoundRect,0.200000X0.275000X-0.200000X0.275000X0.200000X-0.275000X0.200000X-0.275000X-0.200000X0*%
%ADD37RoundRect,0.225000X-0.250000X0.225000X-0.250000X-0.225000X0.250000X-0.225000X0.250000X0.225000X0*%
%ADD38C,3.251200*%
%ADD39C,1.728000*%
%ADD40C,2.566200*%
%ADD41RoundRect,0.222222X-1.552778X-0.577778X1.552778X-0.577778X1.552778X0.577778X-1.552778X0.577778X0*%
%ADD42RoundRect,0.250000X-0.262500X-0.450000X0.262500X-0.450000X0.262500X0.450000X-0.262500X0.450000X0*%
%ADD43RoundRect,0.250000X0.625000X-0.312500X0.625000X0.312500X-0.625000X0.312500X-0.625000X-0.312500X0*%
%ADD44RoundRect,0.200000X-0.275000X0.200000X-0.275000X-0.200000X0.275000X-0.200000X0.275000X0.200000X0*%
%ADD45RoundRect,0.225000X0.250000X-0.225000X0.250000X0.225000X-0.250000X0.225000X-0.250000X-0.225000X0*%
%ADD46R,1.041400X4.191000*%
%ADD47RoundRect,0.250000X0.650000X-0.325000X0.650000X0.325000X-0.650000X0.325000X-0.650000X-0.325000X0*%
%ADD48RoundRect,0.125000X0.487500X0.125000X-0.487500X0.125000X-0.487500X-0.125000X0.487500X-0.125000X0*%
%ADD49RoundRect,0.250000X-0.475000X0.250000X-0.475000X-0.250000X0.475000X-0.250000X0.475000X0.250000X0*%
%ADD50RoundRect,0.250000X0.475000X-0.250000X0.475000X0.250000X-0.475000X0.250000X-0.475000X-0.250000X0*%
%ADD51C,7.500000*%
%ADD52RoundRect,0.100000X-0.637500X-0.100000X0.637500X-0.100000X0.637500X0.100000X-0.637500X0.100000X0*%
%ADD53RoundRect,0.200000X0.200000X0.275000X-0.200000X0.275000X-0.200000X-0.275000X0.200000X-0.275000X0*%
%ADD54RoundRect,0.250000X0.250000X0.475000X-0.250000X0.475000X-0.250000X-0.475000X0.250000X-0.475000X0*%
%ADD55R,0.812800X0.889000*%
%ADD56RoundRect,0.250000X-0.450000X0.262500X-0.450000X-0.262500X0.450000X-0.262500X0.450000X0.262500X0*%
%ADD57RoundRect,0.102000X0.900000X1.000000X-0.900000X1.000000X-0.900000X-1.000000X0.900000X-1.000000X0*%
%ADD58RoundRect,0.100000X-0.100000X0.637500X-0.100000X-0.637500X0.100000X-0.637500X0.100000X0.637500X0*%
%ADD59RoundRect,0.200000X-0.200000X-0.275000X0.200000X-0.275000X0.200000X0.275000X-0.200000X0.275000X0*%
%ADD60RoundRect,0.089250X-0.617750X-0.267750X0.617750X-0.267750X0.617750X0.267750X-0.617750X0.267750X0*%
%ADD61RoundRect,0.100000X0.100000X-0.637500X0.100000X0.637500X-0.100000X0.637500X-0.100000X-0.637500X0*%
%ADD62RoundRect,0.102000X-0.500000X-0.500000X0.500000X-0.500000X0.500000X0.500000X-0.500000X0.500000X0*%
%ADD63C,1.204000*%
%ADD64RoundRect,0.225000X-0.225000X-0.250000X0.225000X-0.250000X0.225000X0.250000X-0.225000X0.250000X0*%
%ADD65RoundRect,0.102000X-0.320000X0.955000X-0.320000X-0.955000X0.320000X-0.955000X0.320000X0.955000X0*%
%ADD66RoundRect,0.060500X0.776500X0.181500X-0.776500X0.181500X-0.776500X-0.181500X0.776500X-0.181500X0*%
%ADD67R,0.889000X0.812800*%
%ADD68C,1.850000*%
%ADD69C,0.860000*%
%ADD70C,1.550000*%
%ADD71C,3.000000*%
%ADD72C,2.000000*%
%ADD73R,1.473200X0.279400*%
%ADD74R,0.279400X1.473200*%
%ADD75RoundRect,0.250000X0.262500X0.450000X-0.262500X0.450000X-0.262500X-0.450000X0.262500X-0.450000X0*%
G04 APERTURE END LIST*
D10*
%TO.C,J7*%
X289813100Y-314800000D02*
G75*
G02*
X288586900Y-314800000I-613100J0D01*
G01*
X288586900Y-314800000D02*
G75*
G02*
X289813100Y-314800000I613100J0D01*
G01*
D11*
X302788100Y-314800000D02*
G75*
G02*
X301211900Y-314800000I-788100J0D01*
G01*
X301211900Y-314800000D02*
G75*
G02*
X302788100Y-314800000I788100J0D01*
G01*
D12*
X295926200Y-316026200D02*
X293473800Y-316026200D01*
X293473800Y-313573800D01*
X295926200Y-313573800D01*
X295926200Y-316026200D01*
G36*
X295926200Y-316026200D02*
G01*
X293473800Y-316026200D01*
X293473800Y-313573800D01*
X295926200Y-313573800D01*
X295926200Y-316026200D01*
G37*
%TD*%
D13*
%TO.C,U8*%
X286742300Y-287879800D03*
X287242299Y-287879800D03*
X287742300Y-287879800D03*
X288242300Y-287879800D03*
X288742301Y-287879800D03*
X289242300Y-287879800D03*
D14*
X289884600Y-287237500D03*
X289884600Y-286737501D03*
X289884600Y-286237500D03*
X289884600Y-285737500D03*
X289884600Y-285237499D03*
X289884600Y-284737500D03*
D13*
X289242300Y-284095200D03*
X288742301Y-284095200D03*
X288242300Y-284095200D03*
X287742300Y-284095200D03*
X287242299Y-284095200D03*
X286742300Y-284095200D03*
D14*
X286100000Y-284737500D03*
X286100000Y-285237499D03*
X286100000Y-285737500D03*
X286100000Y-286237500D03*
X286100000Y-286737501D03*
X286100000Y-287237500D03*
D15*
X287279800Y-286699970D03*
D16*
X286992300Y-285587500D03*
D15*
X287279830Y-285275030D03*
D16*
X287592300Y-284987500D03*
X288492300Y-286987500D03*
D15*
X288704770Y-286699970D03*
D16*
X288992300Y-286387500D03*
X288392300Y-285587500D03*
D15*
X288704770Y-285275030D03*
D16*
X288992300Y-284987500D03*
D17*
X286179756Y-287800000D03*
X289804844Y-287800000D03*
X289804844Y-284175000D03*
X286179756Y-284175000D03*
%TD*%
D18*
%TO.C,U7*%
X168100000Y-211936400D03*
X168600000Y-211936400D03*
X169100000Y-211936400D03*
X169600000Y-211936400D03*
X170100000Y-211936400D03*
X170100000Y-209036400D03*
X169600000Y-209036400D03*
X169100000Y-209036400D03*
X168600000Y-209036400D03*
X168100000Y-209036400D03*
D19*
X169100000Y-210486400D03*
%TD*%
D20*
%TO.C,U25*%
X287345000Y-249365000D03*
X287345000Y-249865000D03*
X287345000Y-250365000D03*
X287345000Y-250865000D03*
X287345000Y-251365000D03*
D21*
X288030000Y-252050000D03*
X288530000Y-252050000D03*
X289030000Y-252050000D03*
X289530000Y-252050000D03*
X290030000Y-252050000D03*
D20*
X290715000Y-251365000D03*
X290715000Y-250865000D03*
X290715000Y-250365000D03*
X290715000Y-249865000D03*
X290715000Y-249365000D03*
D21*
X290030000Y-248680000D03*
X289530000Y-248680000D03*
X289030000Y-248680000D03*
X288530000Y-248680000D03*
X288030000Y-248680000D03*
D22*
X289030000Y-250365000D03*
%TD*%
D20*
%TO.C,U9*%
X287315000Y-268400000D03*
X287315000Y-268900000D03*
X287315000Y-269400000D03*
X287315000Y-269900000D03*
X287315000Y-270400000D03*
D21*
X288000000Y-271085000D03*
X288500000Y-271085000D03*
X289000000Y-271085000D03*
X289500000Y-271085000D03*
X290000000Y-271085000D03*
D20*
X290685000Y-270400000D03*
X290685000Y-269900000D03*
X290685000Y-269400000D03*
X290685000Y-268900000D03*
X290685000Y-268400000D03*
D21*
X290000000Y-267715000D03*
X289500000Y-267715000D03*
X289000000Y-267715000D03*
X288500000Y-267715000D03*
X288000000Y-267715000D03*
D22*
X289000000Y-269400000D03*
%TD*%
D23*
%TO.C,U12*%
X295469700Y-298618500D03*
X295469700Y-299118500D03*
X295469700Y-299618500D03*
X295469700Y-300118500D03*
X295469700Y-300618500D03*
X295469700Y-301118500D03*
D24*
X296132200Y-301781000D03*
X296632200Y-301781000D03*
X297132200Y-301781000D03*
X297632200Y-301781000D03*
X298132200Y-301781000D03*
X298632200Y-301781000D03*
D23*
X299294700Y-301118500D03*
X299294700Y-300618500D03*
X299294700Y-300118500D03*
X299294700Y-299618500D03*
X299294700Y-299118500D03*
X299294700Y-298618500D03*
D24*
X298632200Y-297956000D03*
X298132200Y-297956000D03*
X297632200Y-297956000D03*
X297132200Y-297956000D03*
X296632200Y-297956000D03*
X296132200Y-297956000D03*
D25*
X297382200Y-299243500D03*
D26*
X297382200Y-300793500D03*
%TD*%
D27*
%TO.C,D11*%
X134193000Y-208957500D03*
X134193000Y-207382500D03*
%TD*%
D28*
%TO.C,D13*%
X119943000Y-215242500D03*
X119943000Y-216817500D03*
%TD*%
D29*
%TO.C,D17*%
X269421558Y-296300000D03*
X270996558Y-296300000D03*
%TD*%
D27*
%TO.C,D7*%
X91443000Y-208957500D03*
X91443000Y-207382500D03*
%TD*%
%TO.C,D5*%
X91450000Y-216800000D03*
X91450000Y-215225000D03*
%TD*%
%TO.C,D9*%
X134193000Y-216817500D03*
X134193000Y-215242500D03*
%TD*%
D28*
%TO.C,D1*%
X105693000Y-215242500D03*
X105693000Y-216817500D03*
%TD*%
D27*
%TO.C,D15*%
X119943000Y-208957500D03*
X119943000Y-207382500D03*
%TD*%
%TO.C,D3*%
X105693000Y-208957500D03*
X105693000Y-207382500D03*
%TD*%
D30*
%TO.C,U11*%
X150136200Y-191464600D03*
X150136200Y-192125000D03*
X150136200Y-192760000D03*
X150136200Y-193420400D03*
X150136200Y-194080800D03*
X150136200Y-194715800D03*
X150136200Y-195376200D03*
X150136200Y-196011200D03*
X150136200Y-196671600D03*
X150136200Y-197332000D03*
X150136200Y-197967000D03*
X150136200Y-198627400D03*
X155775000Y-198627400D03*
X155775000Y-197967000D03*
X155775000Y-197332000D03*
X155775000Y-196671600D03*
X155775000Y-196011200D03*
X155775000Y-195376200D03*
X155775000Y-194715800D03*
X155775000Y-194080800D03*
X155775000Y-193420400D03*
X155775000Y-192760000D03*
X155775000Y-192125000D03*
X155775000Y-191464600D03*
D31*
X152205600Y-193246000D03*
X152205600Y-194546000D03*
X152205600Y-195646000D03*
X152205600Y-196846000D03*
D32*
X152955600Y-195046000D03*
D31*
X153705600Y-193296000D03*
X153705600Y-194546000D03*
X153705600Y-195646000D03*
X153705600Y-196846000D03*
%TD*%
D33*
%TO.C,J10*%
X158700000Y-175000000D03*
X158700000Y-180080000D03*
D34*
X156160000Y-180080000D03*
X161240000Y-180080000D03*
X156160000Y-175000000D03*
X161240000Y-175000000D03*
%TD*%
D33*
%TO.C,J18*%
X248700000Y-175000000D03*
X248700000Y-180080000D03*
D34*
X246160000Y-180080000D03*
X251240000Y-180080000D03*
X246160000Y-175000000D03*
X251240000Y-175000000D03*
%TD*%
D33*
%TO.C,J16*%
X228700000Y-175000000D03*
X228700000Y-180080000D03*
D34*
X226160000Y-180080000D03*
X231240000Y-180080000D03*
X226160000Y-175000000D03*
X231240000Y-175000000D03*
%TD*%
D33*
%TO.C,J13*%
X193700000Y-175000000D03*
X193700000Y-180080000D03*
D34*
X191160000Y-180080000D03*
X196240000Y-180080000D03*
X191160000Y-175000000D03*
X196240000Y-175000000D03*
%TD*%
D33*
%TO.C,J9*%
X148700000Y-175000000D03*
X148700000Y-180080000D03*
D34*
X146160000Y-180080000D03*
X151240000Y-180080000D03*
X146160000Y-175000000D03*
X151240000Y-175000000D03*
%TD*%
D33*
%TO.C,J15*%
X218700000Y-175000000D03*
X218700000Y-180080000D03*
D34*
X216160000Y-180080000D03*
X221240000Y-180080000D03*
X216160000Y-175000000D03*
X221240000Y-175000000D03*
%TD*%
D33*
%TO.C,J12*%
X183700000Y-175000000D03*
X183700000Y-180080000D03*
D34*
X181160000Y-180080000D03*
X186240000Y-180080000D03*
X181160000Y-175000000D03*
X186240000Y-175000000D03*
%TD*%
D33*
%TO.C,J14*%
X203700000Y-175000000D03*
X203700000Y-180080000D03*
D34*
X201160000Y-180080000D03*
X206240000Y-180080000D03*
X201160000Y-175000000D03*
X206240000Y-175000000D03*
%TD*%
D33*
%TO.C,J11*%
X173700000Y-175000000D03*
X173700000Y-180080000D03*
D34*
X171160000Y-180080000D03*
X176240000Y-180080000D03*
X171160000Y-175000000D03*
X176240000Y-175000000D03*
%TD*%
D33*
%TO.C,J17*%
X238700000Y-175000000D03*
X238700000Y-180080000D03*
D34*
X236160000Y-180080000D03*
X241240000Y-180080000D03*
X236160000Y-175000000D03*
X241240000Y-175000000D03*
%TD*%
D35*
%TO.C,C72*%
X293800000Y-265500000D03*
X295700000Y-265500000D03*
%TD*%
D36*
%TO.C,R76*%
X83171400Y-249719000D03*
X83171400Y-248069000D03*
%TD*%
D37*
%TO.C,C97*%
X159100000Y-196025000D03*
X159100000Y-197575000D03*
%TD*%
D38*
%TO.C,J8*%
X289074200Y-171932000D03*
X263674200Y-171932000D03*
D39*
X287804200Y-178282000D03*
X273834200Y-178282000D03*
X286534200Y-180822000D03*
X272564200Y-180822000D03*
X285264200Y-178282000D03*
X271294200Y-178282000D03*
X283994200Y-180822000D03*
X270024200Y-180822000D03*
X282724200Y-178282000D03*
X268754200Y-178282000D03*
X281454200Y-180822000D03*
X267484200Y-180822000D03*
X280184200Y-178282000D03*
X266214200Y-178282000D03*
X278914200Y-180822000D03*
X264944200Y-180822000D03*
X276806000Y-168122000D03*
X262607400Y-168122000D03*
X276806000Y-166344000D03*
X262607400Y-166344000D03*
X290141000Y-168122000D03*
X275942400Y-171678000D03*
X290141000Y-166344000D03*
X275942400Y-169900000D03*
D40*
X260880200Y-174980000D03*
X291868200Y-174980000D03*
X277009200Y-186410000D03*
%TD*%
D41*
%TO.C,TP3*%
X81000000Y-326400000D03*
%TD*%
D36*
%TO.C,R94*%
X273614400Y-198285000D03*
X273614400Y-196635000D03*
%TD*%
D42*
%TO.C,R93*%
X173387500Y-211400000D03*
X175212500Y-211400000D03*
%TD*%
D43*
%TO.C,R129*%
X202700000Y-188388500D03*
X202700000Y-185463500D03*
%TD*%
D44*
%TO.C,R48*%
X87997400Y-239624000D03*
X87997400Y-241274000D03*
%TD*%
D41*
%TO.C,TP1*%
X265600000Y-330500000D03*
%TD*%
D44*
%TO.C,R37*%
X98157400Y-233210000D03*
X98157400Y-234860000D03*
%TD*%
D36*
%TO.C,R59*%
X84952133Y-257650000D03*
X84952133Y-256000000D03*
%TD*%
D44*
%TO.C,R43*%
X81139400Y-233210000D03*
X81139400Y-234860000D03*
%TD*%
D45*
%TO.C,C23*%
X81901400Y-226060000D03*
X81901400Y-224510000D03*
%TD*%
D37*
%TO.C,C90*%
X161915000Y-184475000D03*
X161915000Y-186025000D03*
%TD*%
D44*
%TO.C,R8*%
X110857400Y-239624000D03*
X110857400Y-241274000D03*
%TD*%
D46*
%TO.C,L18*%
X282991800Y-288200000D03*
X279385000Y-288200000D03*
%TD*%
D36*
%TO.C,R65*%
X114866667Y-257650000D03*
X114866667Y-256000000D03*
%TD*%
%TO.C,R61*%
X130233333Y-257650000D03*
X130233333Y-256000000D03*
%TD*%
D44*
%TO.C,R32*%
X81088600Y-239624000D03*
X81088600Y-241274000D03*
%TD*%
D47*
%TO.C,C52*%
X294400000Y-280000000D03*
X294400000Y-277050000D03*
%TD*%
D27*
%TO.C,L8*%
X114159400Y-226059500D03*
X114159400Y-224484500D03*
%TD*%
D48*
%TO.C,Q1*%
X266537500Y-300750000D03*
X266537500Y-299450000D03*
X264662500Y-300100000D03*
%TD*%
D27*
%TO.C,L15*%
X83552400Y-226059500D03*
X83552400Y-224484500D03*
%TD*%
D49*
%TO.C,C16*%
X117969400Y-224510000D03*
X117969400Y-226410000D03*
%TD*%
D36*
%TO.C,R57*%
X86700000Y-257650000D03*
X86700000Y-256000000D03*
%TD*%
D49*
%TO.C,C27*%
X94093400Y-224510000D03*
X94093400Y-226410000D03*
%TD*%
D50*
%TO.C,C58*%
X166500000Y-206400000D03*
X166500000Y-204500000D03*
%TD*%
D36*
%TO.C,R80*%
X103200000Y-249719000D03*
X103200000Y-248069000D03*
%TD*%
D51*
%TO.C,MT2*%
X111960000Y-329920000D03*
%TD*%
D52*
%TO.C,U4*%
X87225000Y-266650000D03*
X87225000Y-267300000D03*
X87225000Y-267950000D03*
X87225000Y-268600000D03*
X87225000Y-269250000D03*
X87225000Y-269900000D03*
X87225000Y-270550000D03*
X87225000Y-271200000D03*
X92950000Y-271200000D03*
X92950000Y-270550000D03*
X92950000Y-269900000D03*
X92950000Y-269250000D03*
X92950000Y-268600000D03*
X92950000Y-267950000D03*
X92950000Y-267300000D03*
X92950000Y-266650000D03*
%TD*%
D44*
%TO.C,R16*%
X114413400Y-239624000D03*
X114413400Y-241274000D03*
%TD*%
D27*
%TO.C,D6*%
X79193000Y-209000000D03*
X79193000Y-207425000D03*
%TD*%
D36*
%TO.C,R115*%
X256825000Y-170625000D03*
X256825000Y-168975000D03*
%TD*%
D52*
%TO.C,U3*%
X118850000Y-266650000D03*
X118850000Y-267300000D03*
X118850000Y-267950000D03*
X118850000Y-268600000D03*
X118850000Y-269250000D03*
X118850000Y-269900000D03*
X118850000Y-270550000D03*
X118850000Y-271200000D03*
X124575000Y-271200000D03*
X124575000Y-270550000D03*
X124575000Y-269900000D03*
X124575000Y-269250000D03*
X124575000Y-268600000D03*
X124575000Y-267950000D03*
X124575000Y-267300000D03*
X124575000Y-266650000D03*
%TD*%
D44*
%TO.C,R41*%
X96379400Y-233210000D03*
X96379400Y-234860000D03*
%TD*%
%TO.C,R46*%
X103491400Y-239624000D03*
X103491400Y-241274000D03*
%TD*%
D36*
%TO.C,R56*%
X99516667Y-257650000D03*
X99516667Y-256000000D03*
%TD*%
D53*
%TO.C,R49*%
X129495000Y-268260000D03*
X127845000Y-268260000D03*
%TD*%
D54*
%TO.C,C76*%
X276100000Y-291700000D03*
X274200000Y-291700000D03*
%TD*%
D41*
%TO.C,TP4*%
X68800000Y-196000000D03*
%TD*%
D49*
%TO.C,C44*%
X167382700Y-214665600D03*
X167382700Y-216565600D03*
%TD*%
D44*
%TO.C,R44*%
X86270200Y-239624000D03*
X86270200Y-241274000D03*
%TD*%
D55*
%TO.C,L19*%
X293799900Y-263400000D03*
X295400100Y-263400000D03*
%TD*%
D36*
%TO.C,R104*%
X289100000Y-280205000D03*
X289100000Y-278555000D03*
%TD*%
D45*
%TO.C,C48*%
X290800000Y-277000000D03*
X290800000Y-275450000D03*
%TD*%
D44*
%TO.C,R14*%
X129907400Y-239624000D03*
X129907400Y-241274000D03*
%TD*%
D36*
%TO.C,R132*%
X219950000Y-186750000D03*
X219950000Y-185100000D03*
%TD*%
D49*
%TO.C,C12*%
X133209400Y-224510000D03*
X133209400Y-226410000D03*
%TD*%
D36*
%TO.C,R118*%
X149950000Y-186075000D03*
X149950000Y-184425000D03*
%TD*%
D52*
%TO.C,U1*%
X79550000Y-281425000D03*
X79550000Y-282075000D03*
X79550000Y-282725000D03*
X79550000Y-283375000D03*
X79550000Y-284025000D03*
X79550000Y-284675000D03*
X79550000Y-285325000D03*
X79550000Y-285975000D03*
X79550000Y-286625000D03*
X79550000Y-287275000D03*
X79550000Y-287925000D03*
X79550000Y-288575000D03*
X85275000Y-288575000D03*
X85275000Y-287925000D03*
X85275000Y-287275000D03*
X85275000Y-286625000D03*
X85275000Y-285975000D03*
X85275000Y-285325000D03*
X85275000Y-284675000D03*
X85275000Y-284025000D03*
X85275000Y-283375000D03*
X85275000Y-282725000D03*
X85275000Y-282075000D03*
X85275000Y-281425000D03*
%TD*%
D54*
%TO.C,C123*%
X284400000Y-247970000D03*
X282500000Y-247970000D03*
%TD*%
D36*
%TO.C,R121*%
X160324000Y-186075000D03*
X160324000Y-184425000D03*
%TD*%
%TO.C,R92*%
X284400000Y-280200000D03*
X284400000Y-278550000D03*
%TD*%
D37*
%TO.C,C87*%
X151700000Y-184413000D03*
X151700000Y-185963000D03*
%TD*%
D36*
%TO.C,R140*%
X237940000Y-186825000D03*
X237940000Y-185175000D03*
%TD*%
%TO.C,R71*%
X116699400Y-249719000D03*
X116699400Y-248069000D03*
%TD*%
%TO.C,R74*%
X81393400Y-249719000D03*
X81393400Y-248069000D03*
%TD*%
D35*
%TO.C,C57*%
X173375000Y-209196000D03*
X175275000Y-209196000D03*
%TD*%
D56*
%TO.C,R122*%
X297959000Y-304081200D03*
X297959000Y-305906200D03*
%TD*%
D53*
%TO.C,R106*%
X269850000Y-190350000D03*
X268200000Y-190350000D03*
%TD*%
D27*
%TO.C,L7*%
X112000400Y-226059500D03*
X112000400Y-224484500D03*
%TD*%
D49*
%TO.C,C32*%
X89521400Y-224510000D03*
X89521400Y-226410000D03*
%TD*%
D36*
%TO.C,R89*%
X282800000Y-280225000D03*
X282800000Y-278575000D03*
%TD*%
D49*
%TO.C,C47*%
X169782700Y-214665600D03*
X169782700Y-216565600D03*
%TD*%
D44*
%TO.C,R5*%
X131685400Y-233337000D03*
X131685400Y-234987000D03*
%TD*%
D36*
%TO.C,R82*%
X97866000Y-249719000D03*
X97866000Y-248069000D03*
%TD*%
D53*
%TO.C,R50*%
X129495000Y-266610000D03*
X127845000Y-266610000D03*
%TD*%
D57*
%TO.C,X1*%
X299970800Y-210124600D03*
X294890800Y-210124600D03*
X294890800Y-214324600D03*
X299970800Y-214324600D03*
%TD*%
D36*
%TO.C,R141*%
X249830000Y-186900000D03*
X249830000Y-185250000D03*
%TD*%
D27*
%TO.C,D8*%
X79193000Y-216800000D03*
X79193000Y-215225000D03*
%TD*%
%TO.C,L11*%
X97776400Y-226085000D03*
X97776400Y-224510000D03*
%TD*%
D44*
%TO.C,R146*%
X246330000Y-185250000D03*
X246330000Y-186900000D03*
%TD*%
%TO.C,R20*%
X116191400Y-239624000D03*
X116191400Y-241274000D03*
%TD*%
D27*
%TO.C,L4*%
X129399400Y-226059500D03*
X129399400Y-224484500D03*
%TD*%
D58*
%TO.C,U14*%
X198281833Y-194000000D03*
X197631833Y-194000000D03*
X196981833Y-194000000D03*
X196331833Y-194000000D03*
X195681833Y-194000000D03*
X195031833Y-194000000D03*
X194381833Y-194000000D03*
X193731833Y-194000000D03*
X193081833Y-194000000D03*
X192431833Y-194000000D03*
X191781833Y-194000000D03*
X191131833Y-194000000D03*
X191131833Y-199725000D03*
X191781833Y-199725000D03*
X192431833Y-199725000D03*
X193081833Y-199725000D03*
X193731833Y-199725000D03*
X194381833Y-199725000D03*
X195031833Y-199725000D03*
X195681833Y-199725000D03*
X196331833Y-199725000D03*
X196981833Y-199725000D03*
X197631833Y-199725000D03*
X198281833Y-199725000D03*
%TD*%
D59*
%TO.C,R51*%
X113590000Y-266844000D03*
X115240000Y-266844000D03*
%TD*%
D44*
%TO.C,R131*%
X221700000Y-185100000D03*
X221700000Y-186750000D03*
%TD*%
D36*
%TO.C,R70*%
X84949400Y-249719000D03*
X84949400Y-248069000D03*
%TD*%
D50*
%TO.C,C61*%
X168700000Y-206400000D03*
X168700000Y-204500000D03*
%TD*%
D43*
%TO.C,R117*%
X175700000Y-188388500D03*
X175700000Y-185463500D03*
%TD*%
D52*
%TO.C,U22*%
X92906250Y-281425000D03*
X92906250Y-282075000D03*
X92906250Y-282725000D03*
X92906250Y-283375000D03*
X92906250Y-284025000D03*
X92906250Y-284675000D03*
X92906250Y-285325000D03*
X92906250Y-285975000D03*
X92906250Y-286625000D03*
X92906250Y-287275000D03*
X92906250Y-287925000D03*
X92906250Y-288575000D03*
X98631250Y-288575000D03*
X98631250Y-287925000D03*
X98631250Y-287275000D03*
X98631250Y-286625000D03*
X98631250Y-285975000D03*
X98631250Y-285325000D03*
X98631250Y-284675000D03*
X98631250Y-284025000D03*
X98631250Y-283375000D03*
X98631250Y-282725000D03*
X98631250Y-282075000D03*
X98631250Y-281425000D03*
%TD*%
D44*
%TO.C,R47*%
X79361400Y-233210000D03*
X79361400Y-234860000D03*
%TD*%
%TO.C,R144*%
X236190000Y-185175000D03*
X236190000Y-186825000D03*
%TD*%
D53*
%TO.C,R95*%
X287434400Y-202760000D03*
X285784400Y-202760000D03*
%TD*%
D45*
%TO.C,C7*%
X110349400Y-226047000D03*
X110349400Y-224497000D03*
%TD*%
D52*
%TO.C,U23*%
X132600000Y-281425000D03*
X132600000Y-282075000D03*
X132600000Y-282725000D03*
X132600000Y-283375000D03*
X132600000Y-284025000D03*
X132600000Y-284675000D03*
X132600000Y-285325000D03*
X132600000Y-285975000D03*
X132600000Y-286625000D03*
X132600000Y-287275000D03*
X132600000Y-287925000D03*
X132600000Y-288575000D03*
X138325000Y-288575000D03*
X138325000Y-287925000D03*
X138325000Y-287275000D03*
X138325000Y-286625000D03*
X138325000Y-285975000D03*
X138325000Y-285325000D03*
X138325000Y-284675000D03*
X138325000Y-284025000D03*
X138325000Y-283375000D03*
X138325000Y-282725000D03*
X138325000Y-282075000D03*
X138325000Y-281425000D03*
%TD*%
D59*
%TO.C,R100*%
X271875000Y-190360000D03*
X273525000Y-190360000D03*
%TD*%
D36*
%TO.C,R68*%
X113033333Y-257650000D03*
X113033333Y-256000000D03*
%TD*%
D53*
%TO.C,R98*%
X276620000Y-190320000D03*
X274970000Y-190320000D03*
%TD*%
D44*
%TO.C,R28*%
X79361400Y-239624000D03*
X79361400Y-241274000D03*
%TD*%
D49*
%TO.C,C15*%
X108317400Y-224510000D03*
X108317400Y-226410000D03*
%TD*%
D44*
%TO.C,R143*%
X241440000Y-185175000D03*
X241440000Y-186825000D03*
%TD*%
D59*
%TO.C,R108*%
X265075000Y-190350000D03*
X266725000Y-190350000D03*
%TD*%
D37*
%TO.C,C89*%
X157851000Y-184475000D03*
X157851000Y-186025000D03*
%TD*%
D49*
%TO.C,C31*%
X79869400Y-224510000D03*
X79869400Y-226410000D03*
%TD*%
D44*
%TO.C,R4*%
X109079400Y-239624000D03*
X109079400Y-241274000D03*
%TD*%
D36*
%TO.C,R64*%
X126500000Y-257650000D03*
X126500000Y-256000000D03*
%TD*%
D43*
%TO.C,R123*%
X172700000Y-188388500D03*
X172700000Y-185463500D03*
%TD*%
D36*
%TO.C,R84*%
X99644000Y-249719000D03*
X99644000Y-248069000D03*
%TD*%
D49*
%TO.C,C11*%
X123557400Y-224510000D03*
X123557400Y-226410000D03*
%TD*%
D53*
%TO.C,R101*%
X265405000Y-200510000D03*
X263755000Y-200510000D03*
%TD*%
D59*
%TO.C,R105*%
X286365000Y-190300000D03*
X288015000Y-190300000D03*
%TD*%
D52*
%TO.C,U2*%
X119618750Y-281425000D03*
X119618750Y-282075000D03*
X119618750Y-282725000D03*
X119618750Y-283375000D03*
X119618750Y-284025000D03*
X119618750Y-284675000D03*
X119618750Y-285325000D03*
X119618750Y-285975000D03*
X119618750Y-286625000D03*
X119618750Y-287275000D03*
X119618750Y-287925000D03*
X119618750Y-288575000D03*
X125343750Y-288575000D03*
X125343750Y-287925000D03*
X125343750Y-287275000D03*
X125343750Y-286625000D03*
X125343750Y-285975000D03*
X125343750Y-285325000D03*
X125343750Y-284675000D03*
X125343750Y-284025000D03*
X125343750Y-283375000D03*
X125343750Y-282725000D03*
X125343750Y-282075000D03*
X125343750Y-281425000D03*
%TD*%
D45*
%TO.C,C85*%
X155100000Y-189850000D03*
X155100000Y-188300000D03*
%TD*%
D59*
%TO.C,R116*%
X286000000Y-198450000D03*
X287650000Y-198450000D03*
%TD*%
D27*
%TO.C,D16*%
X107693000Y-216817500D03*
X107693000Y-215242500D03*
%TD*%
D53*
%TO.C,R99*%
X283860000Y-190310000D03*
X282210000Y-190310000D03*
%TD*%
D44*
%TO.C,R34*%
X98157400Y-239624000D03*
X98157400Y-241274000D03*
%TD*%
%TO.C,R138*%
X226280000Y-185100000D03*
X226280000Y-186750000D03*
%TD*%
D53*
%TO.C,R150*%
X267475000Y-306800000D03*
X265825000Y-306800000D03*
%TD*%
D27*
%TO.C,D4*%
X93443000Y-216800000D03*
X93443000Y-215225000D03*
%TD*%
%TO.C,L16*%
X85711400Y-226059500D03*
X85711400Y-224484500D03*
%TD*%
D60*
%TO.C,U16*%
X159600000Y-200700000D03*
X159600000Y-201650000D03*
X159600000Y-202600000D03*
X162110000Y-202600000D03*
X162110000Y-201650000D03*
X162110000Y-200700000D03*
%TD*%
D36*
%TO.C,R113*%
X297200000Y-170450000D03*
X297200000Y-168800000D03*
%TD*%
D37*
%TO.C,C98*%
X164300000Y-200800000D03*
X164300000Y-202350000D03*
%TD*%
D61*
%TO.C,U18*%
X232000000Y-215975000D03*
X232650000Y-215975000D03*
X233300000Y-215975000D03*
X233950000Y-215975000D03*
X234600000Y-215975000D03*
X235250000Y-215975000D03*
X235900000Y-215975000D03*
X236550000Y-215975000D03*
X237200000Y-215975000D03*
X237850000Y-215975000D03*
X238500000Y-215975000D03*
X239150000Y-215975000D03*
X239150000Y-210250000D03*
X238500000Y-210250000D03*
X237850000Y-210250000D03*
X237200000Y-210250000D03*
X236550000Y-210250000D03*
X235900000Y-210250000D03*
X235250000Y-210250000D03*
X234600000Y-210250000D03*
X233950000Y-210250000D03*
X233300000Y-210250000D03*
X232650000Y-210250000D03*
X232000000Y-210250000D03*
%TD*%
D37*
%TO.C,C84*%
X153800000Y-200333400D03*
X153800000Y-201883400D03*
%TD*%
D45*
%TO.C,C19*%
X96125400Y-226060000D03*
X96125400Y-224510000D03*
%TD*%
D51*
%TO.C,MT4*%
X299920000Y-329920000D03*
%TD*%
D44*
%TO.C,R24*%
X117969400Y-239624000D03*
X117969400Y-241274000D03*
%TD*%
D36*
%TO.C,R62*%
X128366667Y-257650000D03*
X128366667Y-256000000D03*
%TD*%
D44*
%TO.C,R15*%
X112635400Y-233210000D03*
X112635400Y-234860000D03*
%TD*%
D36*
%TO.C,R120*%
X156200000Y-186075000D03*
X156200000Y-184425000D03*
%TD*%
D44*
%TO.C,R151*%
X259050000Y-300000000D03*
X259050000Y-301650000D03*
%TD*%
%TO.C,R25*%
X103491400Y-233210000D03*
X103491400Y-234860000D03*
%TD*%
%TO.C,R22*%
X133463400Y-239624000D03*
X133463400Y-241274000D03*
%TD*%
D35*
%TO.C,C118*%
X293850000Y-253370000D03*
X295750000Y-253370000D03*
%TD*%
D51*
%TO.C,MT6*%
X68780000Y-180060000D03*
%TD*%
D36*
%TO.C,R136*%
X228030000Y-186750000D03*
X228030000Y-185100000D03*
%TD*%
D44*
%TO.C,R31*%
X86473400Y-233210000D03*
X86473400Y-234860000D03*
%TD*%
%TO.C,R137*%
X231530000Y-185100000D03*
X231530000Y-186750000D03*
%TD*%
D45*
%TO.C,C67*%
X287500000Y-280155000D03*
X287500000Y-278605000D03*
%TD*%
D43*
%TO.C,R126*%
X195950000Y-188388500D03*
X195950000Y-185463500D03*
%TD*%
D36*
%TO.C,R103*%
X286000000Y-280205000D03*
X286000000Y-278555000D03*
%TD*%
D53*
%TO.C,R149*%
X271050000Y-306800000D03*
X269400000Y-306800000D03*
%TD*%
D50*
%TO.C,C78*%
X285850000Y-265150000D03*
X285850000Y-263250000D03*
%TD*%
D54*
%TO.C,C80*%
X283950000Y-267100000D03*
X282050000Y-267100000D03*
%TD*%
D56*
%TO.C,R147*%
X282050000Y-250245000D03*
X282050000Y-252070000D03*
%TD*%
D44*
%TO.C,R152*%
X259050000Y-303125000D03*
X259050000Y-304775000D03*
%TD*%
D28*
%TO.C,D10*%
X121943000Y-207382500D03*
X121943000Y-208957500D03*
%TD*%
D62*
%TO.C,J1*%
X141424000Y-321284000D03*
D63*
X138924000Y-321284000D03*
X136424000Y-321284000D03*
X133924000Y-321284000D03*
X131424000Y-321284000D03*
X128924000Y-321284000D03*
X126424000Y-321284000D03*
X123924000Y-321284000D03*
X121424000Y-321284000D03*
X118924000Y-321284000D03*
X141424000Y-319784000D03*
X138924000Y-319784000D03*
X136424000Y-319784000D03*
X133924000Y-319784000D03*
X131424000Y-319784000D03*
X128924000Y-319784000D03*
X126424000Y-319784000D03*
X123924000Y-319784000D03*
X121424000Y-319784000D03*
X118924000Y-319784000D03*
X141424000Y-318284000D03*
X138924000Y-318284000D03*
X136424000Y-318284000D03*
X133924000Y-318284000D03*
X131424000Y-318284000D03*
X128924000Y-318284000D03*
X126424000Y-318284000D03*
X123924000Y-318284000D03*
X121424000Y-318284000D03*
X118924000Y-318284000D03*
X141424000Y-316784000D03*
X138924000Y-316784000D03*
X136424000Y-316784000D03*
X133924000Y-316784000D03*
X131424000Y-316784000D03*
X128924000Y-316784000D03*
X126424000Y-316784000D03*
X123924000Y-316784000D03*
X121424000Y-316784000D03*
X118924000Y-316784000D03*
X141424000Y-315284000D03*
X138924000Y-315284000D03*
X136424000Y-315284000D03*
X133924000Y-315284000D03*
X131424000Y-315284000D03*
X128924000Y-315284000D03*
X126424000Y-315284000D03*
X123924000Y-315284000D03*
X121424000Y-315284000D03*
X118924000Y-315284000D03*
X141424000Y-313784000D03*
X138924000Y-313784000D03*
X136424000Y-313784000D03*
X133924000Y-313784000D03*
X131424000Y-313784000D03*
X128924000Y-313784000D03*
X126424000Y-313784000D03*
X123924000Y-313784000D03*
X121424000Y-313784000D03*
X118924000Y-313784000D03*
%TD*%
D44*
%TO.C,R35*%
X82917400Y-233210000D03*
X82917400Y-234860000D03*
%TD*%
D37*
%TO.C,C101*%
X161800000Y-204700000D03*
X161800000Y-206250000D03*
%TD*%
D44*
%TO.C,R26*%
X94601400Y-239624000D03*
X94601400Y-241274000D03*
%TD*%
D37*
%TO.C,C100*%
X160100000Y-204700000D03*
X160100000Y-206250000D03*
%TD*%
D49*
%TO.C,C120*%
X284250000Y-250170000D03*
X284250000Y-252070000D03*
%TD*%
D53*
%TO.C,R114*%
X265375000Y-198600000D03*
X263725000Y-198600000D03*
%TD*%
D28*
%TO.C,D12*%
X121943000Y-215242500D03*
X121943000Y-216817500D03*
%TD*%
D64*
%TO.C,C46*%
X293350000Y-287300000D03*
X294900000Y-287300000D03*
%TD*%
D44*
%TO.C,R7*%
X116191400Y-233210000D03*
X116191400Y-234860000D03*
%TD*%
D53*
%TO.C,R110*%
X287650000Y-196650000D03*
X286000000Y-196650000D03*
%TD*%
D44*
%TO.C,R9*%
X129907400Y-233337000D03*
X129907400Y-234987000D03*
%TD*%
D58*
%TO.C,U13*%
X187963667Y-194000000D03*
X187313667Y-194000000D03*
X186663667Y-194000000D03*
X186013667Y-194000000D03*
X185363667Y-194000000D03*
X184713667Y-194000000D03*
X184063667Y-194000000D03*
X183413667Y-194000000D03*
X182763667Y-194000000D03*
X182113667Y-194000000D03*
X181463667Y-194000000D03*
X180813667Y-194000000D03*
X180813667Y-199725000D03*
X181463667Y-199725000D03*
X182113667Y-199725000D03*
X182763667Y-199725000D03*
X183413667Y-199725000D03*
X184063667Y-199725000D03*
X184713667Y-199725000D03*
X185363667Y-199725000D03*
X186013667Y-199725000D03*
X186663667Y-199725000D03*
X187313667Y-199725000D03*
X187963667Y-199725000D03*
%TD*%
D65*
%TO.C,U20*%
X241605000Y-194210000D03*
X240335000Y-194210000D03*
X239065000Y-194210000D03*
X237795000Y-194210000D03*
X237795000Y-199790000D03*
X239065000Y-199790000D03*
X240335000Y-199790000D03*
X241605000Y-199790000D03*
%TD*%
D66*
%TO.C,U26*%
X257200000Y-309100000D03*
X257200000Y-308600000D03*
X257200000Y-308100000D03*
X257200000Y-307600000D03*
X257200000Y-307100000D03*
X252900000Y-307100000D03*
X252900000Y-307600000D03*
X252900000Y-308100000D03*
X252900000Y-308600000D03*
X252900000Y-309100000D03*
%TD*%
D59*
%TO.C,R97*%
X279120000Y-190300000D03*
X280770000Y-190300000D03*
%TD*%
D36*
%TO.C,R77*%
X130161400Y-249719000D03*
X130161400Y-248069000D03*
%TD*%
D52*
%TO.C,U24*%
X106837500Y-281425000D03*
X106837500Y-282075000D03*
X106837500Y-282725000D03*
X106837500Y-283375000D03*
X106837500Y-284025000D03*
X106837500Y-284675000D03*
X106837500Y-285325000D03*
X106837500Y-285975000D03*
X106837500Y-286625000D03*
X106837500Y-287275000D03*
X106837500Y-287925000D03*
X106837500Y-288575000D03*
X112562500Y-288575000D03*
X112562500Y-287925000D03*
X112562500Y-287275000D03*
X112562500Y-286625000D03*
X112562500Y-285975000D03*
X112562500Y-285325000D03*
X112562500Y-284675000D03*
X112562500Y-284025000D03*
X112562500Y-283375000D03*
X112562500Y-282725000D03*
X112562500Y-282075000D03*
X112562500Y-281425000D03*
%TD*%
D36*
%TO.C,R79*%
X131939400Y-249719000D03*
X131939400Y-248069000D03*
%TD*%
D67*
%TO.C,L17*%
X171900000Y-214600000D03*
X171900000Y-216200200D03*
%TD*%
D36*
%TO.C,R81*%
X126605400Y-249719000D03*
X126605400Y-248069000D03*
%TD*%
D68*
%TO.C,J6*%
X133568000Y-212100000D03*
X122568000Y-219600000D03*
X119318000Y-212100000D03*
X108318000Y-219600000D03*
X105068000Y-212100000D03*
X94068000Y-219600000D03*
X90818000Y-212100000D03*
X79818000Y-219600000D03*
D69*
X124668000Y-211370000D03*
X125468000Y-212750000D03*
X126268000Y-211370000D03*
X127068000Y-212750000D03*
X127868000Y-211370000D03*
X128668000Y-212750000D03*
X129468000Y-211370000D03*
X130268000Y-212750000D03*
X131068000Y-211370000D03*
X131868000Y-212750000D03*
X131468000Y-209820000D03*
X130668000Y-208430000D03*
X129868000Y-209820000D03*
X129068000Y-208430000D03*
X128268000Y-209820000D03*
X127468000Y-208430000D03*
X126668000Y-209820000D03*
X125868000Y-208430000D03*
X125068000Y-209820000D03*
X124268000Y-208430000D03*
X131468000Y-215690000D03*
X130668000Y-214300000D03*
X129868000Y-215690000D03*
X129068000Y-214300000D03*
X128268000Y-215690000D03*
X127468000Y-214300000D03*
X126668000Y-215690000D03*
X125868000Y-214300000D03*
X125068000Y-215690000D03*
X124268000Y-214300000D03*
X124668000Y-217240000D03*
X125468000Y-218620000D03*
X126268000Y-217240000D03*
X127068000Y-218620000D03*
X127868000Y-217240000D03*
X128668000Y-218620000D03*
X129468000Y-217240000D03*
X130268000Y-218620000D03*
X131068000Y-217240000D03*
X131868000Y-218620000D03*
X110418000Y-211370000D03*
X111218000Y-212750000D03*
X112018000Y-211370000D03*
X112818000Y-212750000D03*
X113618000Y-211370000D03*
X114418000Y-212750000D03*
X115218000Y-211370000D03*
X116018000Y-212750000D03*
X116818000Y-211370000D03*
X117618000Y-212750000D03*
X117218000Y-209820000D03*
X116418000Y-208430000D03*
X115618000Y-209820000D03*
X114818000Y-208430000D03*
X114018000Y-209820000D03*
X113218000Y-208430000D03*
X112418000Y-209820000D03*
X111618000Y-208430000D03*
X110818000Y-209820000D03*
X110018000Y-208430000D03*
X117218000Y-215690000D03*
X116418000Y-214300000D03*
X115618000Y-215690000D03*
X114818000Y-214300000D03*
X114018000Y-215690000D03*
X113218000Y-214300000D03*
X112418000Y-215690000D03*
X111618000Y-214300000D03*
X110818000Y-215690000D03*
X110018000Y-214300000D03*
X110418000Y-217240000D03*
X111218000Y-218620000D03*
X112018000Y-217240000D03*
X112818000Y-218620000D03*
X113618000Y-217240000D03*
X114418000Y-218620000D03*
X115218000Y-217240000D03*
X116018000Y-218620000D03*
X116818000Y-217240000D03*
X117618000Y-218620000D03*
D70*
X135193000Y-202000000D03*
X135193000Y-194000000D03*
X135193000Y-186000000D03*
X135193000Y-178000000D03*
X135193000Y-170000000D03*
X132068000Y-221625000D03*
X128068000Y-221625000D03*
X124068000Y-221625000D03*
X120943000Y-202000000D03*
X120943000Y-194000000D03*
X120943000Y-186000000D03*
X120943000Y-178000000D03*
X120943000Y-170000000D03*
X117818000Y-221625000D03*
X113818000Y-221625000D03*
X109818000Y-221625000D03*
X106693000Y-202000000D03*
X106693000Y-194000000D03*
X106693000Y-186000000D03*
X106693000Y-178000000D03*
X106693000Y-170000000D03*
X103568000Y-221625000D03*
X99568000Y-221625000D03*
X95568000Y-221625000D03*
X92443000Y-202000000D03*
X92443000Y-194000000D03*
X92443000Y-186000000D03*
X92443000Y-178000000D03*
X92443000Y-170000000D03*
X89318000Y-221625000D03*
X85318000Y-221625000D03*
X81318000Y-221625000D03*
X78193000Y-202000000D03*
X78193000Y-194000000D03*
X78193000Y-186000000D03*
X78193000Y-178000000D03*
X78193000Y-170000000D03*
D69*
X96168000Y-211370000D03*
X96968000Y-212750000D03*
X97768000Y-211370000D03*
X98568000Y-212750000D03*
X99368000Y-211370000D03*
X100168000Y-212750000D03*
X100968000Y-211370000D03*
X101768000Y-212750000D03*
X102568000Y-211370000D03*
X103368000Y-212750000D03*
X102968000Y-209820000D03*
X102168000Y-208430000D03*
X101368000Y-209820000D03*
X100568000Y-208430000D03*
X99768000Y-209820000D03*
X98968000Y-208430000D03*
X98168000Y-209820000D03*
X97368000Y-208430000D03*
X96568000Y-209820000D03*
X95768000Y-208430000D03*
X102968000Y-215690000D03*
X102168000Y-214300000D03*
X101368000Y-215690000D03*
X100568000Y-214300000D03*
X99768000Y-215690000D03*
X98968000Y-214300000D03*
X98168000Y-215690000D03*
X97368000Y-214300000D03*
X96568000Y-215690000D03*
X95768000Y-214300000D03*
X96168000Y-217240000D03*
X96968000Y-218620000D03*
X97768000Y-217240000D03*
X98568000Y-218620000D03*
X99368000Y-217240000D03*
X100168000Y-218620000D03*
X100968000Y-217240000D03*
X101768000Y-218620000D03*
X102568000Y-217240000D03*
X103368000Y-218620000D03*
X81918000Y-211370000D03*
X82718000Y-212750000D03*
X83518000Y-211370000D03*
X84318000Y-212750000D03*
X85118000Y-211370000D03*
X85918000Y-212750000D03*
X86718000Y-211370000D03*
X87518000Y-212750000D03*
X88318000Y-211370000D03*
X89118000Y-212750000D03*
X88718000Y-209820000D03*
X87918000Y-208430000D03*
X87118000Y-209820000D03*
X86318000Y-208430000D03*
X85518000Y-209820000D03*
X84718000Y-208430000D03*
X83918000Y-209820000D03*
X83118000Y-208430000D03*
X82318000Y-209820000D03*
X81518000Y-208430000D03*
X88718000Y-215690000D03*
X87918000Y-214300000D03*
X87118000Y-215690000D03*
X86318000Y-214300000D03*
X85518000Y-215690000D03*
X84718000Y-214300000D03*
X83918000Y-215690000D03*
X83118000Y-214300000D03*
X82318000Y-215690000D03*
X81518000Y-214300000D03*
X81918000Y-217240000D03*
X82718000Y-218620000D03*
X83518000Y-217240000D03*
X84318000Y-218620000D03*
X85118000Y-217240000D03*
X85918000Y-218620000D03*
X86718000Y-217240000D03*
X87518000Y-218620000D03*
X88318000Y-217240000D03*
X89118000Y-218620000D03*
%TD*%
D62*
%TO.C,J4*%
X217624000Y-321284000D03*
D63*
X215124000Y-321284000D03*
X212624000Y-321284000D03*
X210124000Y-321284000D03*
X207624000Y-321284000D03*
X205124000Y-321284000D03*
X202624000Y-321284000D03*
X200124000Y-321284000D03*
X197624000Y-321284000D03*
X195124000Y-321284000D03*
X217624000Y-319784000D03*
X215124000Y-319784000D03*
X212624000Y-319784000D03*
X210124000Y-319784000D03*
X207624000Y-319784000D03*
X205124000Y-319784000D03*
X202624000Y-319784000D03*
X200124000Y-319784000D03*
X197624000Y-319784000D03*
X195124000Y-319784000D03*
X217624000Y-318284000D03*
X215124000Y-318284000D03*
X212624000Y-318284000D03*
X210124000Y-318284000D03*
X207624000Y-318284000D03*
X205124000Y-318284000D03*
X202624000Y-318284000D03*
X200124000Y-318284000D03*
X197624000Y-318284000D03*
X195124000Y-318284000D03*
X217624000Y-316784000D03*
X215124000Y-316784000D03*
X212624000Y-316784000D03*
X210124000Y-316784000D03*
X207624000Y-316784000D03*
X205124000Y-316784000D03*
X202624000Y-316784000D03*
X200124000Y-316784000D03*
X197624000Y-316784000D03*
X195124000Y-316784000D03*
X217624000Y-315284000D03*
X215124000Y-315284000D03*
X212624000Y-315284000D03*
X210124000Y-315284000D03*
X207624000Y-315284000D03*
X205124000Y-315284000D03*
X202624000Y-315284000D03*
X200124000Y-315284000D03*
X197624000Y-315284000D03*
X195124000Y-315284000D03*
X217624000Y-313784000D03*
X215124000Y-313784000D03*
X212624000Y-313784000D03*
X210124000Y-313784000D03*
X207624000Y-313784000D03*
X205124000Y-313784000D03*
X202624000Y-313784000D03*
X200124000Y-313784000D03*
X197624000Y-313784000D03*
X195124000Y-313784000D03*
%TD*%
D71*
%TO.C,J7*%
X302000000Y-314800000D03*
%TD*%
D62*
%TO.C,J3*%
X192224000Y-321284000D03*
D63*
X189724000Y-321284000D03*
X187224000Y-321284000D03*
X184724000Y-321284000D03*
X182224000Y-321284000D03*
X179724000Y-321284000D03*
X177224000Y-321284000D03*
X174724000Y-321284000D03*
X172224000Y-321284000D03*
X169724000Y-321284000D03*
X192224000Y-319784000D03*
X189724000Y-319784000D03*
X187224000Y-319784000D03*
X184724000Y-319784000D03*
X182224000Y-319784000D03*
X179724000Y-319784000D03*
X177224000Y-319784000D03*
X174724000Y-319784000D03*
X172224000Y-319784000D03*
X169724000Y-319784000D03*
X192224000Y-318284000D03*
X189724000Y-318284000D03*
X187224000Y-318284000D03*
X184724000Y-318284000D03*
X182224000Y-318284000D03*
X179724000Y-318284000D03*
X177224000Y-318284000D03*
X174724000Y-318284000D03*
X172224000Y-318284000D03*
X169724000Y-318284000D03*
X192224000Y-316784000D03*
X189724000Y-316784000D03*
X187224000Y-316784000D03*
X184724000Y-316784000D03*
X182224000Y-316784000D03*
X179724000Y-316784000D03*
X177224000Y-316784000D03*
X174724000Y-316784000D03*
X172224000Y-316784000D03*
X169724000Y-316784000D03*
X192224000Y-315284000D03*
X189724000Y-315284000D03*
X187224000Y-315284000D03*
X184724000Y-315284000D03*
X182224000Y-315284000D03*
X179724000Y-315284000D03*
X177224000Y-315284000D03*
X174724000Y-315284000D03*
X172224000Y-315284000D03*
X169724000Y-315284000D03*
X192224000Y-313784000D03*
X189724000Y-313784000D03*
X187224000Y-313784000D03*
X184724000Y-313784000D03*
X182224000Y-313784000D03*
X179724000Y-313784000D03*
X177224000Y-313784000D03*
X174724000Y-313784000D03*
X172224000Y-313784000D03*
X169724000Y-313784000D03*
%TD*%
D64*
%TO.C,C62*%
X293350000Y-283532844D03*
X294900000Y-283532844D03*
%TD*%
D58*
%TO.C,U10*%
X170450000Y-240275000D03*
X169800000Y-240275000D03*
X169150000Y-240275000D03*
X168500000Y-240275000D03*
X167850000Y-240275000D03*
X167200000Y-240275000D03*
X166550000Y-240275000D03*
X165900000Y-240275000D03*
X165250000Y-240275000D03*
X164600000Y-240275000D03*
X163950000Y-240275000D03*
X163300000Y-240275000D03*
X163300000Y-246000000D03*
X163950000Y-246000000D03*
X164600000Y-246000000D03*
X165250000Y-246000000D03*
X165900000Y-246000000D03*
X166550000Y-246000000D03*
X167200000Y-246000000D03*
X167850000Y-246000000D03*
X168500000Y-246000000D03*
X169150000Y-246000000D03*
X169800000Y-246000000D03*
X170450000Y-246000000D03*
%TD*%
D53*
%TO.C,R52*%
X91015000Y-264860000D03*
X89365000Y-264860000D03*
%TD*%
D35*
%TO.C,C74*%
X293800000Y-270000000D03*
X295700000Y-270000000D03*
%TD*%
%TO.C,C75*%
X293800000Y-267700000D03*
X295700000Y-267700000D03*
%TD*%
D44*
%TO.C,R10*%
X128129400Y-239624000D03*
X128129400Y-241274000D03*
%TD*%
%TO.C,R30*%
X96379400Y-239624000D03*
X96379400Y-241274000D03*
%TD*%
D53*
%TO.C,R107*%
X291150000Y-190300000D03*
X289500000Y-190300000D03*
%TD*%
D45*
%TO.C,C3*%
X125589400Y-226047000D03*
X125589400Y-224497000D03*
%TD*%
D43*
%TO.C,R128*%
X205700000Y-188388500D03*
X205700000Y-185463500D03*
%TD*%
D49*
%TO.C,C83*%
X151900000Y-200400000D03*
X151900000Y-202300000D03*
%TD*%
D44*
%TO.C,R27*%
X88251400Y-233210000D03*
X88251400Y-234860000D03*
%TD*%
D59*
%TO.C,R109*%
X263725000Y-196900000D03*
X265375000Y-196900000D03*
%TD*%
D65*
%TO.C,U21*%
X251605000Y-194210000D03*
X250335000Y-194210000D03*
X249065000Y-194210000D03*
X247795000Y-194210000D03*
X247795000Y-199790000D03*
X249065000Y-199790000D03*
X250335000Y-199790000D03*
X251605000Y-199790000D03*
%TD*%
D27*
%TO.C,L3*%
X127240400Y-226059500D03*
X127240400Y-224484500D03*
%TD*%
D37*
%TO.C,C88*%
X147450000Y-184400000D03*
X147450000Y-185950000D03*
%TD*%
%TO.C,C99*%
X160900000Y-196000000D03*
X160900000Y-197550000D03*
%TD*%
D44*
%TO.C,R29*%
X101713400Y-233210000D03*
X101713400Y-234860000D03*
%TD*%
D53*
%TO.C,R111*%
X271025000Y-298400000D03*
X269375000Y-298400000D03*
%TD*%
D49*
%TO.C,C77*%
X283800000Y-269000000D03*
X283800000Y-270900000D03*
%TD*%
%TO.C,C28*%
X103745400Y-224510000D03*
X103745400Y-226410000D03*
%TD*%
D36*
%TO.C,R66*%
X111200000Y-257650000D03*
X111200000Y-256000000D03*
%TD*%
%TO.C,R142*%
X248080000Y-186900000D03*
X248080000Y-185250000D03*
%TD*%
%TO.C,R139*%
X239690000Y-186825000D03*
X239690000Y-185175000D03*
%TD*%
%TO.C,R60*%
X81456400Y-257650000D03*
X81456400Y-256000000D03*
%TD*%
D44*
%TO.C,R21*%
X124573400Y-233337000D03*
X124573400Y-234987000D03*
%TD*%
D62*
%TO.C,J2*%
X166824000Y-321284000D03*
D63*
X164324000Y-321284000D03*
X161824000Y-321284000D03*
X159324000Y-321284000D03*
X156824000Y-321284000D03*
X154324000Y-321284000D03*
X151824000Y-321284000D03*
X149324000Y-321284000D03*
X146824000Y-321284000D03*
X144324000Y-321284000D03*
X166824000Y-319784000D03*
X164324000Y-319784000D03*
X161824000Y-319784000D03*
X159324000Y-319784000D03*
X156824000Y-319784000D03*
X154324000Y-319784000D03*
X151824000Y-319784000D03*
X149324000Y-319784000D03*
X146824000Y-319784000D03*
X144324000Y-319784000D03*
X166824000Y-318284000D03*
X164324000Y-318284000D03*
X161824000Y-318284000D03*
X159324000Y-318284000D03*
X156824000Y-318284000D03*
X154324000Y-318284000D03*
X151824000Y-318284000D03*
X149324000Y-318284000D03*
X146824000Y-318284000D03*
X144324000Y-318284000D03*
X166824000Y-316784000D03*
X164324000Y-316784000D03*
X161824000Y-316784000D03*
X159324000Y-316784000D03*
X156824000Y-316784000D03*
X154324000Y-316784000D03*
X151824000Y-316784000D03*
X149324000Y-316784000D03*
X146824000Y-316784000D03*
X144324000Y-316784000D03*
X166824000Y-315284000D03*
X164324000Y-315284000D03*
X161824000Y-315284000D03*
X159324000Y-315284000D03*
X156824000Y-315284000D03*
X154324000Y-315284000D03*
X151824000Y-315284000D03*
X149324000Y-315284000D03*
X146824000Y-315284000D03*
X144324000Y-315284000D03*
X166824000Y-313784000D03*
X164324000Y-313784000D03*
X161824000Y-313784000D03*
X159324000Y-313784000D03*
X156824000Y-313784000D03*
X154324000Y-313784000D03*
X151824000Y-313784000D03*
X149324000Y-313784000D03*
X146824000Y-313784000D03*
X144324000Y-313784000D03*
%TD*%
D44*
%TO.C,R18*%
X131685400Y-239624000D03*
X131685400Y-241274000D03*
%TD*%
D43*
%TO.C,R125*%
X182450000Y-188388500D03*
X182450000Y-185463500D03*
%TD*%
D37*
%TO.C,C50*%
X289200000Y-290325000D03*
X289200000Y-291875000D03*
%TD*%
D51*
%TO.C,MT3*%
X250644000Y-329920000D03*
%TD*%
D59*
%TO.C,R102*%
X285755000Y-200580000D03*
X287405000Y-200580000D03*
%TD*%
D36*
%TO.C,R83*%
X128383400Y-249719000D03*
X128383400Y-248069000D03*
%TD*%
D44*
%TO.C,R2*%
X124573400Y-239624000D03*
X124573400Y-241274000D03*
%TD*%
D72*
%TO.C,TP6*%
X265200000Y-291400000D03*
%TD*%
D44*
%TO.C,R45*%
X94601400Y-233210000D03*
X94601400Y-234860000D03*
%TD*%
D36*
%TO.C,R90*%
X290800000Y-280205000D03*
X290800000Y-278555000D03*
%TD*%
D35*
%TO.C,C119*%
X293850000Y-251070000D03*
X295750000Y-251070000D03*
%TD*%
D36*
%TO.C,R55*%
X101233333Y-257650000D03*
X101233333Y-256000000D03*
%TD*%
D54*
%TO.C,C65*%
X295450000Y-261300000D03*
X293550000Y-261300000D03*
%TD*%
D56*
%TO.C,R86*%
X295800000Y-304030400D03*
X295800000Y-305855400D03*
%TD*%
D62*
%TO.C,J5*%
X243024000Y-321284000D03*
D63*
X240524000Y-321284000D03*
X238024000Y-321284000D03*
X235524000Y-321284000D03*
X233024000Y-321284000D03*
X230524000Y-321284000D03*
X228024000Y-321284000D03*
X225524000Y-321284000D03*
X223024000Y-321284000D03*
X220524000Y-321284000D03*
X243024000Y-319784000D03*
X240524000Y-319784000D03*
X238024000Y-319784000D03*
X235524000Y-319784000D03*
X233024000Y-319784000D03*
X230524000Y-319784000D03*
X228024000Y-319784000D03*
X225524000Y-319784000D03*
X223024000Y-319784000D03*
X220524000Y-319784000D03*
X243024000Y-318284000D03*
X240524000Y-318284000D03*
X238024000Y-318284000D03*
X235524000Y-318284000D03*
X233024000Y-318284000D03*
X230524000Y-318284000D03*
X228024000Y-318284000D03*
X225524000Y-318284000D03*
X223024000Y-318284000D03*
X220524000Y-318284000D03*
X243024000Y-316784000D03*
X240524000Y-316784000D03*
X238024000Y-316784000D03*
X235524000Y-316784000D03*
X233024000Y-316784000D03*
X230524000Y-316784000D03*
X228024000Y-316784000D03*
X225524000Y-316784000D03*
X223024000Y-316784000D03*
X220524000Y-316784000D03*
X243024000Y-315284000D03*
X240524000Y-315284000D03*
X238024000Y-315284000D03*
X235524000Y-315284000D03*
X233024000Y-315284000D03*
X230524000Y-315284000D03*
X228024000Y-315284000D03*
X225524000Y-315284000D03*
X223024000Y-315284000D03*
X220524000Y-315284000D03*
X243024000Y-313784000D03*
X240524000Y-313784000D03*
X238024000Y-313784000D03*
X235524000Y-313784000D03*
X233024000Y-313784000D03*
X230524000Y-313784000D03*
X228024000Y-313784000D03*
X225524000Y-313784000D03*
X223024000Y-313784000D03*
X220524000Y-313784000D03*
%TD*%
D44*
%TO.C,R19*%
X110857400Y-233210000D03*
X110857400Y-234860000D03*
%TD*%
D64*
%TO.C,C49*%
X293350000Y-289027200D03*
X294900000Y-289027200D03*
%TD*%
D50*
%TO.C,C55*%
X170900000Y-206400000D03*
X170900000Y-204500000D03*
%TD*%
D44*
%TO.C,R23*%
X109079400Y-233210000D03*
X109079400Y-234860000D03*
%TD*%
D50*
%TO.C,C86*%
X153200000Y-189800000D03*
X153200000Y-187900000D03*
%TD*%
D44*
%TO.C,R38*%
X99935400Y-239624000D03*
X99935400Y-241274000D03*
%TD*%
D36*
%TO.C,R72*%
X86727400Y-249719000D03*
X86727400Y-248069000D03*
%TD*%
%TO.C,R73*%
X111365400Y-249719000D03*
X111365400Y-248069000D03*
%TD*%
%TO.C,R91*%
X292400000Y-280200000D03*
X292400000Y-278550000D03*
%TD*%
D50*
%TO.C,C121*%
X285650000Y-245670000D03*
X285650000Y-243770000D03*
%TD*%
D44*
%TO.C,R11*%
X114413400Y-233210000D03*
X114413400Y-234860000D03*
%TD*%
D50*
%TO.C,C79*%
X288000000Y-265150000D03*
X288000000Y-263250000D03*
%TD*%
D37*
%TO.C,C8*%
X115937400Y-224510000D03*
X115937400Y-226060000D03*
%TD*%
D50*
%TO.C,C122*%
X287750000Y-245670000D03*
X287750000Y-243770000D03*
%TD*%
D36*
%TO.C,R63*%
X132100000Y-257650000D03*
X132100000Y-256000000D03*
%TD*%
%TO.C,R130*%
X162700000Y-197625000D03*
X162700000Y-195975000D03*
%TD*%
D65*
%TO.C,U19*%
X231605000Y-194210000D03*
X230335000Y-194210000D03*
X229065000Y-194210000D03*
X227795000Y-194210000D03*
X227795000Y-199790000D03*
X229065000Y-199790000D03*
X230335000Y-199790000D03*
X231605000Y-199790000D03*
%TD*%
D41*
%TO.C,TP2*%
X300100000Y-229400000D03*
%TD*%
D35*
%TO.C,C117*%
X293850000Y-248830000D03*
X295750000Y-248830000D03*
%TD*%
D36*
%TO.C,R87*%
X274150000Y-220640000D03*
X274150000Y-218990000D03*
%TD*%
D44*
%TO.C,R42*%
X101713400Y-239624000D03*
X101713400Y-241274000D03*
%TD*%
D27*
%TO.C,D14*%
X107693000Y-208957500D03*
X107693000Y-207382500D03*
%TD*%
%TO.C,D2*%
X93443000Y-208975000D03*
X93443000Y-207400000D03*
%TD*%
D65*
%TO.C,U17*%
X221605000Y-194210000D03*
X220335000Y-194210000D03*
X219065000Y-194210000D03*
X217795000Y-194210000D03*
X217795000Y-199790000D03*
X219065000Y-199790000D03*
X220335000Y-199790000D03*
X221605000Y-199790000D03*
%TD*%
D36*
%TO.C,R133*%
X218200000Y-186750000D03*
X218200000Y-185100000D03*
%TD*%
D51*
%TO.C,MT5*%
X299920000Y-180060000D03*
%TD*%
D36*
%TO.C,R53*%
X102950000Y-257650000D03*
X102950000Y-256000000D03*
%TD*%
D37*
%TO.C,C20*%
X101713400Y-224510000D03*
X101713400Y-226060000D03*
%TD*%
D36*
%TO.C,R119*%
X145690400Y-186000000D03*
X145690400Y-184350000D03*
%TD*%
D59*
%TO.C,R96*%
X262714400Y-204469400D03*
X264364400Y-204469400D03*
%TD*%
D44*
%TO.C,R39*%
X84695400Y-233210000D03*
X84695400Y-234860000D03*
%TD*%
D72*
%TO.C,TP5*%
X277100000Y-280000000D03*
%TD*%
D56*
%TO.C,R85*%
X293564800Y-304077400D03*
X293564800Y-305902400D03*
%TD*%
D37*
%TO.C,C4*%
X131177400Y-224510000D03*
X131177400Y-226060000D03*
%TD*%
D44*
%TO.C,R36*%
X82815800Y-239624000D03*
X82815800Y-241274000D03*
%TD*%
D54*
%TO.C,C116*%
X295750000Y-244870000D03*
X293850000Y-244870000D03*
%TD*%
D36*
%TO.C,R67*%
X116700000Y-257650000D03*
X116700000Y-256000000D03*
%TD*%
D44*
%TO.C,R17*%
X126351400Y-233337000D03*
X126351400Y-234987000D03*
%TD*%
%TO.C,R33*%
X99935400Y-233210000D03*
X99935400Y-234860000D03*
%TD*%
%TO.C,R145*%
X251580000Y-185250000D03*
X251580000Y-186900000D03*
%TD*%
D58*
%TO.C,U15*%
X208600000Y-194000000D03*
X207950000Y-194000000D03*
X207300000Y-194000000D03*
X206650000Y-194000000D03*
X206000000Y-194000000D03*
X205350000Y-194000000D03*
X204700000Y-194000000D03*
X204050000Y-194000000D03*
X203400000Y-194000000D03*
X202750000Y-194000000D03*
X202100000Y-194000000D03*
X201450000Y-194000000D03*
X201450000Y-199725000D03*
X202100000Y-199725000D03*
X202750000Y-199725000D03*
X203400000Y-199725000D03*
X204050000Y-199725000D03*
X204700000Y-199725000D03*
X205350000Y-199725000D03*
X206000000Y-199725000D03*
X206650000Y-199725000D03*
X207300000Y-199725000D03*
X207950000Y-199725000D03*
X208600000Y-199725000D03*
%TD*%
D36*
%TO.C,R54*%
X97800000Y-257650000D03*
X97800000Y-256000000D03*
%TD*%
D54*
%TO.C,C66*%
X276125400Y-285019800D03*
X274225400Y-285019800D03*
%TD*%
D44*
%TO.C,R1*%
X133463400Y-233337000D03*
X133463400Y-234987000D03*
%TD*%
D36*
%TO.C,R58*%
X83204267Y-257650000D03*
X83204267Y-256000000D03*
%TD*%
D44*
%TO.C,R12*%
X112635400Y-239624000D03*
X112635400Y-241274000D03*
%TD*%
%TO.C,R134*%
X216450000Y-185100000D03*
X216450000Y-186750000D03*
%TD*%
D53*
%TO.C,R112*%
X267187742Y-296300000D03*
X265537742Y-296300000D03*
%TD*%
D55*
%TO.C,L22*%
X293900000Y-246870000D03*
X295500200Y-246870000D03*
%TD*%
D36*
%TO.C,R78*%
X101422000Y-249719000D03*
X101422000Y-248069000D03*
%TD*%
D27*
%TO.C,L12*%
X99935400Y-226085000D03*
X99935400Y-224510000D03*
%TD*%
D73*
%TO.C,U6*%
X281112800Y-212622800D03*
X281112800Y-212114800D03*
X281112800Y-211632200D03*
X281112800Y-211124200D03*
X281112800Y-210616200D03*
X281112800Y-210133600D03*
X281112800Y-209625600D03*
X281112800Y-209117600D03*
X281112800Y-208635000D03*
X281112800Y-208127000D03*
X281112800Y-207619000D03*
X281112800Y-207111000D03*
X281112800Y-206628400D03*
X281112800Y-206120400D03*
X281112800Y-205612400D03*
X281112800Y-205129800D03*
X281112800Y-204621800D03*
X281112800Y-204113800D03*
X281112800Y-203631200D03*
X281112800Y-203123200D03*
D74*
X279106200Y-201116600D03*
X278598200Y-201116600D03*
X278115600Y-201116600D03*
X277607600Y-201116600D03*
X277099600Y-201116600D03*
X276617000Y-201116600D03*
X276109000Y-201116600D03*
X275601000Y-201116600D03*
X275118400Y-201116600D03*
X274610400Y-201116600D03*
X274102400Y-201116600D03*
X273594400Y-201116600D03*
X273111800Y-201116600D03*
X272603800Y-201116600D03*
X272095800Y-201116600D03*
X271613200Y-201116600D03*
X271105200Y-201116600D03*
X270597200Y-201116600D03*
X270114600Y-201116600D03*
X269606600Y-201116600D03*
D73*
X267600000Y-203123200D03*
X267600000Y-203631200D03*
X267600000Y-204113800D03*
X267600000Y-204621800D03*
X267600000Y-205129800D03*
X267600000Y-205612400D03*
X267600000Y-206120400D03*
X267600000Y-206628400D03*
X267600000Y-207111000D03*
X267600000Y-207619000D03*
X267600000Y-208127000D03*
X267600000Y-208635000D03*
X267600000Y-209117600D03*
X267600000Y-209625600D03*
X267600000Y-210133600D03*
X267600000Y-210616200D03*
X267600000Y-211124200D03*
X267600000Y-211632200D03*
X267600000Y-212114800D03*
X267600000Y-212622800D03*
D74*
X269606600Y-214629400D03*
X270114600Y-214629400D03*
X270597200Y-214629400D03*
X271105200Y-214629400D03*
X271613200Y-214629400D03*
X272095800Y-214629400D03*
X272603800Y-214629400D03*
X273111800Y-214629400D03*
X273594400Y-214629400D03*
X274102400Y-214629400D03*
X274610400Y-214629400D03*
X275118400Y-214629400D03*
X275601000Y-214629400D03*
X276109000Y-214629400D03*
X276617000Y-214629400D03*
X277099600Y-214629400D03*
X277607600Y-214629400D03*
X278115600Y-214629400D03*
X278598200Y-214629400D03*
X279106200Y-214629400D03*
%TD*%
D43*
%TO.C,R127*%
X192700000Y-188388500D03*
X192700000Y-185463500D03*
%TD*%
D54*
%TO.C,C68*%
X276100000Y-287331200D03*
X274200000Y-287331200D03*
%TD*%
D44*
%TO.C,R6*%
X126351400Y-239624000D03*
X126351400Y-241274000D03*
%TD*%
D37*
%TO.C,C24*%
X87489400Y-224510000D03*
X87489400Y-226060000D03*
%TD*%
D36*
%TO.C,R69*%
X114921400Y-249719000D03*
X114921400Y-248069000D03*
%TD*%
D44*
%TO.C,R3*%
X117969400Y-233210000D03*
X117969400Y-234860000D03*
%TD*%
D36*
%TO.C,R75*%
X113143400Y-249719000D03*
X113143400Y-248069000D03*
%TD*%
D43*
%TO.C,R124*%
X185450000Y-188388500D03*
X185450000Y-185463500D03*
%TD*%
D54*
%TO.C,C73*%
X276125400Y-289541000D03*
X274225400Y-289541000D03*
%TD*%
D58*
%TO.C,U5*%
X177645500Y-194000000D03*
X176995500Y-194000000D03*
X176345500Y-194000000D03*
X175695500Y-194000000D03*
X175045500Y-194000000D03*
X174395500Y-194000000D03*
X173745500Y-194000000D03*
X173095500Y-194000000D03*
X172445500Y-194000000D03*
X171795500Y-194000000D03*
X171145500Y-194000000D03*
X170495500Y-194000000D03*
X170495500Y-199725000D03*
X171145500Y-199725000D03*
X171795500Y-199725000D03*
X172445500Y-199725000D03*
X173095500Y-199725000D03*
X173745500Y-199725000D03*
X174395500Y-199725000D03*
X175045500Y-199725000D03*
X175695500Y-199725000D03*
X176345500Y-199725000D03*
X176995500Y-199725000D03*
X177645500Y-199725000D03*
%TD*%
D75*
%TO.C,R148*%
X283975000Y-254170000D03*
X282150000Y-254170000D03*
%TD*%
D53*
%TO.C,R88*%
X294950000Y-285200000D03*
X293300000Y-285200000D03*
%TD*%
D51*
%TO.C,MT1*%
X68780000Y-329920000D03*
%TD*%
D44*
%TO.C,R40*%
X84543000Y-239624000D03*
X84543000Y-241274000D03*
%TD*%
%TO.C,R13*%
X128129400Y-233337000D03*
X128129400Y-234987000D03*
%TD*%
D36*
%TO.C,R135*%
X229780000Y-186750000D03*
X229780000Y-185100000D03*
%TD*%
M02*
